<?xml version="1.0" encoding="utf-8"?>
<svg version="1.1" xmlns:xlink="http://www.w3.org/1999/xlink" width="41px" height="16px" xmlns="http://www.w3.org/2000/svg">
  <defs>
    <mask fill="white" id="clip24">
      <path d="M 0 10.2857142857143  L 0 5.71428571428571  C 0 2.51428571428551  2.20000000000005 0  5 0  L 27 0  L 36 0  C 38.8 0  41 2.51428571428551  41 5.71428571428571  L 41 10.2857142857143  C 41 13.4857142857145  38.8 16  36 16  L 5 16  C 2.20000000000005 16  0 13.4857142857145  0 10.2857142857143  Z " fill-rule="evenodd" />
    </mask>
  </defs>
  <g transform="matrix(1 0 0 1 -578 -2083 )">
    <path d="M 0 10.2857142857143  L 0 5.71428571428571  C 0 2.51428571428551  2.20000000000005 0  5 0  L 27 0  L 36 0  C 38.8 0  41 2.51428571428551  41 5.71428571428571  L 41 10.2857142857143  C 41 13.4857142857145  38.8 16  36 16  L 5 16  C 2.20000000000005 16  0 13.4857142857145  0 10.2857142857143  Z " fill-rule="nonzero" fill="#ffffff" stroke="none" transform="matrix(1 0 0 1 578 2083 )" />
    <path d="M 0 10.2857142857143  L 0 5.71428571428571  C 0 2.51428571428551  2.20000000000005 0  5 0  L 27 0  L 36 0  C 38.8 0  41 2.51428571428551  41 5.71428571428571  L 41 10.2857142857143  C 41 13.4857142857145  38.8 16  36 16  L 5 16  C 2.20000000000005 16  0 13.4857142857145  0 10.2857142857143  Z " stroke-width="2" stroke="#02a7f0" fill="none" transform="matrix(1 0 0 1 578 2083 )" mask="url(#clip24)" />
  </g>
</svg>