<?xml version="1.0" encoding="utf-8"?>
<svg version="1.1" xmlns:xlink="http://www.w3.org/1999/xlink" width="47px" height="16px" xmlns="http://www.w3.org/2000/svg">
  <defs>
    <mask fill="white" id="clip25">
      <path d="M 0 10.2857142857144  L 0 5.71428571428563  C 0 2.51428571428551  2.52195121951217 0  5.73170731707314 0  L 29.9090909090909 0  L 30.9512195121951 0  L 41.2682926829269 0  C 44.4780487804878 0  47 2.51428571428551  47 5.71428571428563  L 47 10.2857142857144  C 47 13.4857142857145  44.4780487804878 16  41.2682926829269 16  L 29.9090909090909 16  L 5.73170731707314 16  C 2.52195121951217 16  0 13.4857142857145  0 10.2857142857144  Z " fill-rule="evenodd" />
    </mask>
  </defs>
  <g transform="matrix(1 0 0 1 -624 -2083 )">
    <path d="M 0 10.2857142857144  L 0 5.71428571428563  C 0 2.51428571428551  2.52195121951217 0  5.73170731707314 0  L 29.9090909090909 0  L 30.9512195121951 0  L 41.2682926829269 0  C 44.4780487804878 0  47 2.51428571428551  47 5.71428571428563  L 47 10.2857142857144  C 47 13.4857142857145  44.4780487804878 16  41.2682926829269 16  L 29.9090909090909 16  L 5.73170731707314 16  C 2.52195121951217 16  0 13.4857142857145  0 10.2857142857144  Z " fill-rule="nonzero" fill="#ffffff" stroke="none" transform="matrix(1 0 0 1 624 2083 )" />
    <path d="M 0 10.2857142857144  L 0 5.71428571428563  C 0 2.51428571428551  2.52195121951217 0  5.73170731707314 0  L 29.9090909090909 0  L 30.9512195121951 0  L 41.2682926829269 0  C 44.4780487804878 0  47 2.51428571428551  47 5.71428571428563  L 47 10.2857142857144  C 47 13.4857142857145  44.4780487804878 16  41.2682926829269 16  L 29.9090909090909 16  L 5.73170731707314 16  C 2.52195121951217 16  0 13.4857142857145  0 10.2857142857144  Z " stroke-width="2" stroke="#000000" fill="none" transform="matrix(1 0 0 1 624 2083 )" mask="url(#clip25)" />
  </g>
</svg>