<?xml version="1.0" encoding="utf-8"?>
<svg version="1.1" xmlns:xlink="http://www.w3.org/1999/xlink" width="56px" height="16px" xmlns="http://www.w3.org/2000/svg">
  <defs>
    <mask fill="white" id="clip26">
      <path d="M 0 10.2857142857144  L 0 5.71428571428563  C 0 2.51428571428551  3.00487804878046 0  6.82926829268289 0  L 35.6363636363636 0  L 36.8780487804878 0  L 49.1707317073171 0  C 52.9951219512195 0  56 2.51428571428551  56 5.71428571428563  L 56 10.2857142857144  C 56 13.4857142857145  52.9951219512195 16  49.1707317073171 16  L 35.6363636363636 16  L 6.82926829268289 16  C 3.00487804878046 16  0 13.4857142857145  0 10.2857142857144  Z " fill-rule="evenodd" />
    </mask>
  </defs>
  <g transform="matrix(1 0 0 1 -620 -2504 )">
    <path d="M 0 10.2857142857144  L 0 5.71428571428563  C 0 2.51428571428551  3.00487804878046 0  6.82926829268289 0  L 35.6363636363636 0  L 36.8780487804878 0  L 49.1707317073171 0  C 52.9951219512195 0  56 2.51428571428551  56 5.71428571428563  L 56 10.2857142857144  C 56 13.4857142857145  52.9951219512195 16  49.1707317073171 16  L 35.6363636363636 16  L 6.82926829268289 16  C 3.00487804878046 16  0 13.4857142857145  0 10.2857142857144  Z " fill-rule="nonzero" fill="#ffffff" stroke="none" transform="matrix(1 0 0 1 620 2504 )" />
    <path d="M 0 10.2857142857144  L 0 5.71428571428563  C 0 2.51428571428551  3.00487804878046 0  6.82926829268289 0  L 35.6363636363636 0  L 36.8780487804878 0  L 49.1707317073171 0  C 52.9951219512195 0  56 2.51428571428551  56 5.71428571428563  L 56 10.2857142857144  C 56 13.4857142857145  52.9951219512195 16  49.1707317073171 16  L 35.6363636363636 16  L 6.82926829268289 16  C 3.00487804878046 16  0 13.4857142857145  0 10.2857142857144  Z " stroke-width="2" stroke="#000000" fill="none" transform="matrix(1 0 0 1 620 2504 )" mask="url(#clip26)" />
  </g>
</svg>