<?xml version="1.0" encoding="utf-8"?>
<svg version="1.1" xmlns:xlink="http://www.w3.org/1999/xlink" width="51px" height="16px" xmlns="http://www.w3.org/2000/svg">
  <defs>
    <mask fill="white" id="clip27">
      <path d="M 0 10.2857142857144  L 0 5.71428571428563  C 0 2.51428571428551  2.73658536585363 0  6.21951219512192 0  L 32.4545454545455 0  L 33.5853658536586 0  L 44.7804878048781 0  C 48.2634146341464 0  51 2.51428571428551  51 5.71428571428563  L 51 10.2857142857144  C 51 13.4857142857145  48.2634146341464 16  44.7804878048781 16  L 32.4545454545455 16  L 6.21951219512192 16  C 2.73658536585363 16  0 13.4857142857145  0 10.2857142857144  Z " fill-rule="evenodd" />
    </mask>
  </defs>
  <g transform="matrix(1 0 0 1 -677 -2083 )">
    <path d="M 0 10.2857142857144  L 0 5.71428571428563  C 0 2.51428571428551  2.73658536585363 0  6.21951219512192 0  L 32.4545454545455 0  L 33.5853658536586 0  L 44.7804878048781 0  C 48.2634146341464 0  51 2.51428571428551  51 5.71428571428563  L 51 10.2857142857144  C 51 13.4857142857145  48.2634146341464 16  44.7804878048781 16  L 32.4545454545455 16  L 6.21951219512192 16  C 2.73658536585363 16  0 13.4857142857145  0 10.2857142857144  Z " fill-rule="nonzero" fill="#ffffff" stroke="none" transform="matrix(1 0 0 1 677 2083 )" />
    <path d="M 0 10.2857142857144  L 0 5.71428571428563  C 0 2.51428571428551  2.73658536585363 0  6.21951219512192 0  L 32.4545454545455 0  L 33.5853658536586 0  L 44.7804878048781 0  C 48.2634146341464 0  51 2.51428571428551  51 5.71428571428563  L 51 10.2857142857144  C 51 13.4857142857145  48.2634146341464 16  44.7804878048781 16  L 32.4545454545455 16  L 6.21951219512192 16  C 2.73658536585363 16  0 13.4857142857145  0 10.2857142857144  Z " stroke-width="2" stroke="#000000" fill="none" transform="matrix(1 0 0 1 677 2083 )" mask="url(#clip27)" />
  </g>
</svg>