<?xml version="1.0" encoding="utf-8"?>
<svg version="1.1" xmlns:xlink="http://www.w3.org/1999/xlink" width="45px" height="17px" xmlns="http://www.w3.org/2000/svg">
  <defs>
    <mask fill="white" id="clip2">
      <path d="M 0 10.9285714285715  L 0 6.07142857142848  C 0 2.67142857142835  2.41463414634144 0  5.48780487804875 0  L 28.6363636363636 0  L 29.6341463414634 0  L 39.5121951219513 0  C 42.5853658536586 0  45 2.67142857142835  45 6.07142857142848  L 45 10.9285714285715  C 45 14.3285714285716  42.5853658536586 17  39.5121951219513 17  L 28.6363636363636 17  L 5.48780487804875 17  C 2.41463414634144 17  0 14.3285714285716  0 10.9285714285715  Z " fill-rule="evenodd" />
    </mask>
  </defs>
  <g transform="matrix(1 0 0 1 -3036 -2580 )">
    <path d="M 0 10.9285714285715  L 0 6.07142857142848  C 0 2.67142857142835  2.41463414634144 0  5.48780487804875 0  L 28.6363636363636 0  L 29.6341463414634 0  L 39.5121951219513 0  C 42.5853658536586 0  45 2.67142857142835  45 6.07142857142848  L 45 10.9285714285715  C 45 14.3285714285716  42.5853658536586 17  39.5121951219513 17  L 28.6363636363636 17  L 5.48780487804875 17  C 2.41463414634144 17  0 14.3285714285716  0 10.9285714285715  Z " fill-rule="nonzero" fill="#ffffff" stroke="none" transform="matrix(1 0 0 1 3036 2580 )" />
    <path d="M 0 10.9285714285715  L 0 6.07142857142848  C 0 2.67142857142835  2.41463414634144 0  5.48780487804875 0  L 28.6363636363636 0  L 29.6341463414634 0  L 39.5121951219513 0  C 42.5853658536586 0  45 2.67142857142835  45 6.07142857142848  L 45 10.9285714285715  C 45 14.3285714285716  42.5853658536586 17  39.5121951219513 17  L 28.6363636363636 17  L 5.48780487804875 17  C 2.41463414634144 17  0 14.3285714285716  0 10.9285714285715  Z " stroke-width="2" stroke="#02a7f0" fill="none" transform="matrix(1 0 0 1 3036 2580 )" mask="url(#clip2)" />
  </g>
</svg>