<?xml version="1.0" encoding="utf-8"?>
<svg version="1.1" xmlns:xlink="http://www.w3.org/1999/xlink" width="22px" height="39px" xmlns="http://www.w3.org/2000/svg">
  <g transform="matrix(1 0 0 1 -265 -2549 )">
    <path d="M 20.796875 11.8772727272727  C 21.5989583333333 12.7045454545455  22 13.7090909090909  22 14.8909090909091  L 22 24.1090909090909  C 22 24.7  21.7994791666667 25.2022727272727  21.3984375 25.6159090909091  C 20.9973958333333 26.0295454545455  20.5104166666667 26.2363636363636  19.9375 26.2363636363636  C 19.3645833333333 26.2363636363636  18.8776041666667 26.0295454545455  18.4765625 25.6159090909091  C 18.0755208333333 25.2022727272727  17.875 24.7  17.875 24.1090909090909  L 17.875 16.3090909090909  L 16.5 16.3090909090909  L 16.5 36.5181818181818  C 16.5 37.1977272727273  16.263671875 37.78125  15.791015625 38.26875  C 15.318359375 38.75625  14.7526041666667 39  14.09375 39  C 13.4348958333333 39  12.869140625 38.75625  12.396484375 38.26875  C 11.923828125 37.78125  11.6875 37.1977272727273  11.6875 36.5181818181818  L 11.6875 26.2363636363636  L 10.3125 26.2363636363636  L 10.3125 36.5181818181818  C 10.3125 37.1977272727273  10.076171875 37.78125  9.603515625 38.26875  C 9.130859375 38.75625  8.56510416666667 39  7.90625 39  C 7.24739583333333 39  6.681640625 38.75625  6.208984375 38.26875  C 5.736328125 37.78125  5.5 37.1977272727273  5.5 36.5181818181818  L 5.5 16.3090909090909  L 4.125 16.3090909090909  L 4.125 24.1090909090909  C 4.125 24.7  3.92447916666667 25.2022727272727  3.5234375 25.6159090909091  C 3.12239583333333 26.0295454545455  2.63541666666667 26.2363636363636  2.0625 26.2363636363636  C 1.48958333333333 26.2363636363636  1.00260416666667 26.0295454545455  0.6015625 25.6159090909091  C 0.200520833333333 25.2022727272727  0 24.7  0 24.1090909090909  L 0 14.8909090909091  C 0 13.7090909090909  0.401041666666667 12.7045454545455  1.203125 11.8772727272727  C 2.00520833333333 11.05  2.97916666666667 10.6363636363636  4.125 11  L 17.875 11  C 19.0208333333333 10.6363636363636  19.9947916666667 11.05  20.796875 11.8772727272727  Z M 14.4052734375 1.45142045454546  C 15.3434244791667 2.41903409090909  15.8125 3.58977272727273  15.8125 4.96363636363637  C 15.8125 6.3375  15.3434244791667 7.50823863636364  14.4052734375 8.47585227272727  C 13.4671223958333 9.44346590909091  12.33203125 9.92727272727273  11 9.92727272727273  C 9.66796875 9.92727272727273  8.53287760416667 9.44346590909091  7.5947265625 8.47585227272727  C 6.65657552083333 7.50823863636364  6.1875 6.3375  6.1875 4.96363636363637  C 6.1875 3.58977272727273  6.65657552083333 2.41903409090909  7.5947265625 1.45142045454546  C 8.53287760416667 0.483806818181815  9.66796875 0  11 0  C 12.33203125 0  13.4671223958333 0.483806818181815  14.4052734375 1.45142045454546  Z " fill-rule="nonzero" fill="#f59a23" stroke="none" transform="matrix(1 0 0 1 265 2549 )" />
  </g>
</svg>