<?xml version="1.0" encoding="utf-8"?>
<svg version="1.1" xmlns:xlink="http://www.w3.org/1999/xlink" width="35px" height="35px" xmlns="http://www.w3.org/2000/svg">
  <g transform="matrix(1 0 0 1 -185 -2620 )">
    <path d="M 24.3780048076923 26.552734375  C 24.9669471153846 25.9212239583333  25.2614182692308 25.1302083333333  25.2614182692308 24.1796875  C 25.2614182692308 23.4375  25.2228565705128 22.7408854166667  25.1457331730769 22.08984375  C 25.068609775641 21.4388020833333  24.921374198718 20.7845052083333  24.7040264423077 20.126953125  C 24.4866786858974 19.4694010416667  24.2097355769231 18.9095052083333  23.8731971153846 18.447265625  C 23.5366586538462 17.9850260416667  23.0879407051282 17.607421875  22.5270432692308 17.314453125  C 21.9661458333333 17.021484375  21.328125 16.875  20.6129807692308 16.875  C 20.5288461538462 16.9270833333333  20.2939703525641 17.060546875  19.9083533653846 17.275390625  C 19.5227363782051 17.490234375  19.2247596153846 17.6497395833333  19.0144230769231 17.75390625  C 18.8040865384615 17.8580729166667  18.5201322115385 17.98828125  18.1625600961538 18.14453125  C 17.8049879807692 18.30078125  17.4614383012821 18.4114583333333  17.1319110576923 18.4765625  C 16.8023838141026 18.5416666666667  16.4763621794872 18.57421875  16.1538461538462 18.57421875  C 15.8313301282051 18.57421875  15.5053084935897 18.5416666666667  15.17578125 18.4765625  C 14.8462540064103 18.4114583333333  14.5027043269231 18.30078125  14.1451322115385 18.14453125  C 13.7875600961538 17.98828125  13.5036057692308 17.8580729166667  13.2932692307692 17.75390625  C 13.0829326923077 17.6497395833333  12.7849559294872 17.490234375  12.3993389423077 17.275390625  C 12.0137219551282 17.060546875  11.7788461538462 16.9270833333333  11.6947115384615 16.875  C 10.9795673076923 16.875  10.341546474359 17.021484375  9.78064903846154 17.314453125  C 9.2197516025641 17.607421875  8.77103365384616 17.9850260416667  8.43449519230769 18.447265625  C 8.09795673076923 18.9095052083333  7.82101362179487 19.4694010416667  7.60366586538462 20.126953125  C 7.38631810897436 20.7845052083333  7.23908253205128 21.4388020833333  7.16195913461539 22.08984375  C 7.08483573717949 22.7408854166667  7.04627403846154 23.4375  7.04627403846154 24.1796875  C 7.04627403846154 25.1302083333333  7.34074519230769 25.9212239583333  7.9296875 26.552734375  C 8.51862980769231 27.1842447916667  9.24078525641026 27.5  10.0961538461538 27  L 22.2115384615385 27  C 23.0669070512821 27.5  23.7890625 27.1842447916667  24.3780048076923 26.552734375  Z M 20.0135216346154 16.15234375  C 21.0862379807692 15.1627604166667  21.6225961538462 13.9713541666667  21.6225961538462 12.578125  C 21.6225961538462 11.171875  21.0862379807692 9.97395833333333  20.0135216346154 8.984375  C 18.9408052884615 7.99479166666666  17.6542467948718 7.5  16.1538461538462 7.5  C 14.6534455128205 7.5  13.3668870192308 7.99479166666666  12.2941706730769 8.984375  C 11.2214543269231 9.97395833333333  10.6850961538462 11.171875  10.6850961538462 12.578125  C 10.6850961538462 13.9713541666667  11.2214543269231 15.1627604166667  12.2941706730769 16.15234375  C 13.3668870192308 17.1419270833333  14.6534455128205 17.63671875  16.1538461538462 17.63671875  C 17.6542467948718 17.63671875  18.9408052884615 17.1419270833333  20.0135216346154 16.15234375  Z M 34.8106971153846 22.67578125  C 34.9368990384615 22.79296875  35 22.9427083333333  35 23.125  L 35 26.875  C 35 27.0572916666667  34.9368990384615 27.20703125  34.8106971153846 27.32421875  C 34.6844951923077 27.44140625  34.5232371794872 27.5  34.3269230769231 27.5  L 32.3076923076923 27.5  L 32.3076923076923 31.875  C 32.3076923076923 32.734375  31.9781650641026 33.4700520833333  31.3191105769231 34.08203125  C 30.6600560897436 34.6940104166667  29.8677884615385 35  28.9423076923077 35  L 3.36538461538462 35  C 2.43990384615385 35  1.64763621794872 34.6940104166667  0.988581730769231 34.08203125  C 0.329527243589744 33.4700520833333  0 32.734375  0 31.875  L 0 3.125  C 0 2.265625  0.329527243589744 1.52994791666666  0.988581730769231 0.917968750000001  C 1.64763621794872 0.305989583333334  2.43990384615385 0  3.36538461538462 0  L 28.9423076923077 0  C 29.8677884615385 0  30.6600560897436 0.305989583333334  31.3191105769231 0.917968750000001  C 31.9781650641026 1.52994791666666  32.3076923076923 2.265625  32.3076923076923 3.125  L 32.3076923076923 7.5  L 34.3269230769231 7.5  C 34.5232371794872 7.5  34.6844951923077 7.55859375  34.8106971153846 7.67578125  C 34.9368990384615 7.79296875  35 7.94270833333333  35 8.125  L 35 11.875  C 35 12.0572916666667  34.9368990384615 12.20703125  34.8106971153846 12.32421875  C 34.6844951923077 12.44140625  34.5232371794872 12.5  34.3269230769231 12.5  L 32.3076923076923 12.5  L 32.3076923076923 15  L 34.3269230769231 15  C 34.5232371794872 15  34.6844951923077 15.05859375  34.8106971153846 15.17578125  C 34.9368990384615 15.29296875  35 15.4427083333333  35 15.625  L 35 19.375  C 35 19.5572916666667  34.9368990384615 19.70703125  34.8106971153846 19.82421875  C 34.6844951923077 19.94140625  34.5232371794872 20  34.3269230769231 20  L 32.3076923076923 20  L 32.3076923076923 22.5  L 34.3269230769231 22.5  C 34.5232371794872 22.5  34.6844951923077 22.55859375  34.8106971153846 22.67578125  Z " fill-rule="nonzero" fill="#02a7f0" stroke="none" transform="matrix(1 0 0 1 185 2620 )" />
  </g>
</svg>