<?xml version="1.0" encoding="utf-8"?>
<svg version="1.1" xmlns:xlink="http://www.w3.org/1999/xlink" width="65px" height="41px" xmlns="http://www.w3.org/2000/svg">
  <defs>
    <mask fill="white" id="clip4">
      <path d="M 45 0  L 65 20.5  L 45 41  L 45 30  L 0 30  L 0 11  L 45 11  L 45 0  Z " fill-rule="evenodd" />
    </mask>
  </defs>
  <g transform="matrix(1 0 0 1 -2377 -2677 )">
    <path d="M 45 0  L 65 20.5  L 45 41  L 45 30  L 0 30  L 0 11  L 45 11  L 45 0  Z " fill-rule="nonzero" fill="#ffffff" stroke="none" transform="matrix(1 0 0 1 2377 2677 )" />
    <path d="M 45 0  L 65 20.5  L 45 41  L 45 30  L 0 30  L 0 11  L 45 11  L 45 0  Z " stroke-width="2" stroke="#797979" fill="none" transform="matrix(1 0 0 1 2377 2677 )" mask="url(#clip4)" />
  </g>
</svg>