<?xml version="1.0" encoding="utf-8"?>
<svg version="1.1" xmlns:xlink="http://www.w3.org/1999/xlink" width="16px" height="15px" xmlns="http://www.w3.org/2000/svg">
  <g transform="matrix(1 0 0 1 -2823 -2549 )">
    <path d="M 7.62109375 6.4013671875  C 7.03515625 7.1337890625  6.328125 7.5  5.5 7.5  C 4.671875 7.5  3.96484375 7.1337890625  3.37890625 6.4013671875  C 2.79296875 5.6689453125  2.5 4.78515625  2.5 3.75  C 2.5 2.71484375  2.79296875 1.8310546875  3.37890625 1.0986328125  C 3.96484375 0.3662109375  4.671875 0  5.5 0  C 6.328125 0  7.03515625 0.3662109375  7.62109375 1.0986328125  C 8.20703125 1.8310546875  8.5 2.71484375  8.5 3.75  C 8.5 4.78515625  8.20703125 5.6689453125  7.62109375 6.4013671875  Z M 13 5.3125  L 13 8.75  L 15.75 8.75  C 15.8177083333333 8.75  15.8763020833333 8.78092447916666  15.92578125 8.8427734375  C 15.9752604166667 8.90462239583333  16 8.97786458333333  16 9.0625  L 16 10.9375  C 16 11.0221354166667  15.9752604166667 11.0953776041667  15.92578125 11.1572265625  C 15.8763020833333 11.2190755208333  15.8177083333333 11.25  15.75 11.25  L 13 11.25  L 13 14.6875  C 13 14.7721354166667  12.9752604166667 14.8453776041667  12.92578125 14.9072265625  C 12.8763020833333 14.9690755208333  12.8177083333333 15  12.75 15  L 11.25 15  C 11.1822916666667 15  11.1236979166667 14.9690755208333  11.07421875 14.9072265625  C 11.0247395833333 14.8453776041667  11 14.7721354166667  11 14.6875  L 11 11.25  L 8.25 11.25  C 8.18229166666667 11.25  8.12369791666667 11.2190755208333  8.07421875 11.1572265625  C 8.02473958333333 11.0953776041667  8 11.0221354166667  8 10.9375  L 8 9.0625  C 8 8.97786458333333  8.02473958333333 8.90462239583333  8.07421875 8.8427734375  C 8.12369791666667 8.78092447916666  8.18229166666667 8.75  8.25 8.75  L 11 8.75  L 11 5.3125  C 11 5.22786458333333  11.0247395833333 5.15462239583333  11.07421875 5.0927734375  C 11.1236979166667 5.03092447916667  11.1822916666667 5  11.25 5  L 12.75 5  C 12.8177083333333 5  12.8763020833333 5.03092447916667  12.92578125 5.0927734375  C 12.9752604166667 5.15462239583333  13 5.22786458333333  13 5.3125  Z M 7.25 9.0625  L 7.25 10.9375  C 7.25 11.2760416666667  7.34895833333333 11.5690104166667  7.546875 11.81640625  C 7.74479166666667 12.0638020833333  7.97916666666667 12.1875  8.25 12.1875  L 10.25 12.1875  L 10.25 14.51171875  C 9.89583333333333 14.8372395833333  9.45052083333333 15  8.9140625 15  L 2.0859375 15  C 1.45572916666667 15  0.950520833333333 14.775390625  0.5703125 14.326171875  C 0.190104166666667 13.876953125  0 13.2584635416667  0 12.470703125  C 0 12.1256510416667  0.00911458333333333 11.7887369791667  0.02734375 11.4599609375  C 0.0455729166666667 11.1311848958333  0.08203125 10.7763671875  0.13671875 10.3955078125  C 0.19140625 10.0146484375  0.260416666666667 9.66145833333333  0.34375 9.3359375  C 0.427083333333333 9.01041666666667  0.5390625 8.69303385416666  0.6796875 8.3837890625  C 0.8203125 8.07454427083333  0.981770833333333 7.81087239583333  1.1640625 7.5927734375  C 1.34635416666667 7.37467447916667  1.56901041666667 7.20052083333333  1.83203125 7.0703125  C 2.09505208333333 6.94010416666667  2.38541666666667 6.875  2.703125 6.875  C 2.80208333333333 6.875  2.90364583333333 6.93033854166667  3.0078125 7.041015625  C 3.41927083333333 7.43815104166667  3.82161458333333 7.73600260416667  4.21484375 7.9345703125  C 4.60807291666667 8.13313802083333  5.03645833333333 8.232421875  5.5 8.232421875  C 5.96354166666667 8.232421875  6.39192708333333 8.13313802083333  6.78515625 7.9345703125  C 7.17838541666667 7.73600260416667  7.58072916666667 7.43815104166667  7.9921875 7.041015625  C 8.09635416666667 6.93033854166667  8.19791666666667 6.875  8.296875 6.875  C 8.984375 6.875  9.54947916666667 7.1875  9.9921875 7.8125  L 8.25 7.8125  C 7.97916666666667 7.8125  7.74479166666667 7.93619791666667  7.546875 8.18359375  C 7.34895833333333 8.43098958333333  7.25 8.72395833333333  7.25 9.0625  Z " fill-rule="nonzero" fill="#000000" stroke="none" transform="matrix(1 0 0 1 2823 2549 )" />
  </g>
</svg>