<?xml version="1.0" encoding="utf-8"?>
<svg version="1.1" xmlns:xlink="http://www.w3.org/1999/xlink" width="16px" height="15px" xmlns="http://www.w3.org/2000/svg">
  <g transform="matrix(1 0 0 1 -3290 -2550 )">
    <path d="M 15.89375 10.8447265625  C 15.9645833333333 11.3362630208333  16 11.8587239583333  16 12.412109375  C 16 13.1217447916667  15.7395833333333 13.73046875  15.21875 14.23828125  C 14.6979166666667 14.74609375  14.0708333333333 15  13.3375 15  L 2.6625 15  C 1.92916666666667 15  1.30208333333333 14.74609375  0.78125 14.23828125  C 0.260416666666667 13.73046875  0 13.1217447916667  0 12.412109375  C 0 11.8587239583333  0.0354166666666667 11.3362630208333  0.10625 10.8447265625  C 0.177083333333333 10.3531901041667  0.308333333333333 9.8583984375  0.5 9.3603515625  C 0.691666666666667 8.8623046875  0.935416666666667 8.43587239583333  1.23125 8.0810546875  C 1.52708333333333 7.72623697916667  1.91875 7.4365234375  2.40625 7.2119140625  C 2.89375 6.9873046875  3.45416666666667 6.875  4.0875 6.875  C 5.17916666666667 7.70833333333333  6.48333333333333 8.125  8 8.125  C 9.51666666666667 8.125  10.8208333333333 7.70833333333333  11.9125 6.875  C 12.5458333333333 6.875  13.10625 6.9873046875  13.59375 7.2119140625  C 14.08125 7.4365234375  14.4729166666667 7.72623697916667  14.76875 8.0810546875  C 15.0645833333333 8.43587239583333  15.3083333333333 8.8623046875  15.5 9.3603515625  C 15.6916666666667 9.8583984375  15.8229166666667 10.3531901041667  15.89375 10.8447265625  Z M 11.39375 1.0986328125  C 12.33125 1.8310546875  12.8 2.71484375  12.8 3.75  C 12.8 4.78515625  12.33125 5.6689453125  11.39375 6.4013671875  C 10.45625 7.1337890625  9.325 7.5  8 7.5  C 6.675 7.5  5.54375 7.1337890625  4.60625 6.4013671875  C 3.66875 5.6689453125  3.2 4.78515625  3.2 3.75  C 3.2 2.71484375  3.66875 1.8310546875  4.60625 1.0986328125  C 5.54375 0.3662109375  6.675 0  8 0  C 9.325 0  10.45625 0.3662109375  11.39375 1.0986328125  Z " fill-rule="nonzero" fill="#000000" stroke="none" transform="matrix(1 0 0 1 3290 2550 )" />
  </g>
</svg>