<?xml version="1.0" encoding="utf-8"?>
<svg version="1.1" xmlns:xlink="http://www.w3.org/1999/xlink" width="16px" height="15px" xmlns="http://www.w3.org/2000/svg">
  <g transform="matrix(1 0 0 1 -1662 -3485 )">
    <path d="M 13.7001239157373 8.56975837879969  C 13.7067327550599 8.58534684333593  13.7100371747212 8.6087295401403  13.7100371747212 8.63990646921278  L 13.7100371747212 14.2517537022603  C 13.7100371747212 14.4544037412315  13.6472532011565 14.6297739672642  13.5216852540273 14.7778643803585  C 13.396117306898 14.9259547934528  13.2474184221396 15  13.0755885997522 15  L 9.26889714993804 15  L 9.26889714993804 10.510522213562  L 6.73110285006196 10.510522213562  L 6.73110285006196 15  L 2.92441140024783 15  C 2.75258157786039 15  2.60388269310202 14.9259547934528  2.47831474597274 14.7778643803585  C 2.35274679884345 14.6297739672642  2.28996282527881 14.4544037412315  2.28996282527881 14.2517537022603  L 2.28996282527881 8.63990646921278  C 2.28996282527881 8.63211223694466  2.29161503510946 8.62042088854248  2.29491945477076 8.60483242400623  C 2.29822387443205 8.58924395946999  2.2998760842627 8.57755261106781  2.2998760842627 8.56975837879969  L 8 3.02805923616524  L 13.7001239157373 8.56975837879969  Z M 15.9900867410161 7.55845674201091  C 15.9966955803387 7.66367887763055  15.9735646427096 7.75526110678098  15.9206939281289 7.8332034294622  L 15.3060718711276 8.6983632112237  C 15.2532011565469 8.76851130163679  15.1838083436596 8.81137957911146  15.0978934324659 8.8269680436477  L 15.0681536555142 8.8269680436477  C 14.9822387443205 8.8269680436477  14.9128459314333 8.79968823070927  14.8599752168525 8.74512860483242  L 8 1.99922057677319  L 1.14002478314746 8.74512860483242  C 1.06071871127633 8.8074824629774  0.981412639405205 8.83476227591582  0.902106567534077 8.8269680436477  C 0.816191656340355 8.81137957911146  0.746798843453119 8.76851130163679  0.693928128872367 8.6983632112237  L 0.0793060718711276 7.8332034294622  C 0.0264353572903759 7.75526110678098  0.00330441966129701 7.66367887763055  0.00991325898389095 7.55845674201091  C 0.016522098306485 7.45323460639127  0.0528707145807518 7.36944660950896  0.118959107806691 7.30709275136399  L 7.24659231722429 0.303975058456742  C 7.45807517554729 0.101325019485579  7.70921106980587 0  8 0  C 8.29078893019414 0  8.54192482445271 0.101325019485579  8.75340768277571 0.303975058456742  L 11.1722428748451 2.68901013250195  L 11.1722428748451 0.409197194076383  C 11.1722428748451 0.30007794232268  11.2019826517968 0.210444271239282  11.2614622057001 0.140296180826189  C 11.3209417596035 0.0701480904130947  11.3969434118133 0.0350740452065473  11.4894671623296 0.0350740452065473  L 13.3928128872367 0.0350740452065473  C 13.485336637753 0.0350740452065473  13.5613382899628 0.0701480904130947  13.6208178438662 0.140296180826189  C 13.6802973977695 0.210444271239282  13.7100371747212 0.30007794232268  13.7100371747212 0.409197194076383  L 13.7100371747212 5.1792673421668  L 15.8810408921933 7.30709275136399  C 15.9471292854192 7.36944660950896  15.9834779016935 7.45323460639127  15.9900867410161 7.55845674201091  Z " fill-rule="nonzero" fill="#95f204" stroke="none" transform="matrix(1 0 0 1 1662 3485 )" />
  </g>
</svg>