<?xml version="1.0" encoding="utf-8"?>
<svg version="1.1" xmlns:xlink="http://www.w3.org/1999/xlink" width="90px" height="41px" xmlns="http://www.w3.org/2000/svg">
  <defs>
    <mask fill="white" id="clip8">
      <path d="M 63 0  L 90 20.5  L 63 41  L 63 30  L 0 30  L 0 11  L 63 11  L 63 0  Z " fill-rule="evenodd" />
    </mask>
  </defs>
  <g transform="matrix(1 0 0 1 -4115 -2788 )">
    <path d="M 63 0  L 90 20.5  L 63 41  L 63 30  L 0 30  L 0 11  L 63 11  L 63 0  Z " fill-rule="nonzero" fill="#ffffff" stroke="none" transform="matrix(1 0 0 1 4115 2788 )" />
    <path d="M 63 0  L 90 20.5  L 63 41  L 63 30  L 0 30  L 0 11  L 63 11  L 63 0  Z " stroke-width="2" stroke="#797979" fill="none" transform="matrix(1 0 0 1 4115 2788 )" mask="url(#clip8)" />
  </g>
</svg>