<?xml version="1.0" encoding="utf-8"?>
<svg version="1.1" xmlns:xlink="http://www.w3.org/1999/xlink" width="33px" height="16px" xmlns="http://www.w3.org/2000/svg">
  <defs>
    <mask fill="white" id="clip10">
      <path d="M 0 10.2857142857144  L 0 5.71428571428563  C 0 2.51428571428551  1.77073170731705 0  4.02439024390242 0  L 21 0  L 21.7317073170732 0  L 28.9756097560976 0  C 31.2292682926829 0  33 2.51428571428551  33 5.71428571428563  L 33 10.2857142857144  C 33 13.4857142857145  31.2292682926829 16  28.9756097560976 16  L 21 16  L 4.02439024390242 16  C 1.77073170731705 16  0 13.4857142857145  0 10.2857142857144  Z " fill-rule="evenodd" />
    </mask>
  </defs>
  <g transform="matrix(1 0 0 1 -1968 -2634 )">
    <path d="M 0 10.2857142857144  L 0 5.71428571428563  C 0 2.51428571428551  1.77073170731705 0  4.02439024390242 0  L 21 0  L 21.7317073170732 0  L 28.9756097560976 0  C 31.2292682926829 0  33 2.51428571428551  33 5.71428571428563  L 33 10.2857142857144  C 33 13.4857142857145  31.2292682926829 16  28.9756097560976 16  L 21 16  L 4.02439024390242 16  C 1.77073170731705 16  0 13.4857142857145  0 10.2857142857144  Z " fill-rule="nonzero" fill="#ffffff" stroke="none" transform="matrix(1 0 0 1 1968 2634 )" />
    <path d="M 0 10.2857142857144  L 0 5.71428571428563  C 0 2.51428571428551  1.77073170731705 0  4.02439024390242 0  L 21 0  L 21.7317073170732 0  L 28.9756097560976 0  C 31.2292682926829 0  33 2.51428571428551  33 5.71428571428563  L 33 10.2857142857144  C 33 13.4857142857145  31.2292682926829 16  28.9756097560976 16  L 21 16  L 4.02439024390242 16  C 1.77073170731705 16  0 13.4857142857145  0 10.2857142857144  Z " stroke-width="2" stroke="#333333" fill="none" transform="matrix(1 0 0 1 1968 2634 )" mask="url(#clip10)" />
  </g>
</svg>