<?xml version="1.0" encoding="utf-8"?>
<svg version="1.1" xmlns:xlink="http://www.w3.org/1999/xlink" width="46px" height="16px" xmlns="http://www.w3.org/2000/svg">
  <defs>
    <mask fill="white" id="clip15">
      <path d="M 0 10.2857142857144  L 0 5.71428571428563  C 0 2.51428571428551  2.4682926829268 0  5.60975609756095 0  L 29.2727272727273 0  L 30.2926829268293 0  L 40.3902439024391 0  C 43.5317073170732 0  46 2.51428571428551  46 5.71428571428563  L 46 10.2857142857144  C 46 13.4857142857145  43.5317073170732 16  40.3902439024391 16  L 29.2727272727273 16  L 5.60975609756095 16  C 2.4682926829268 16  0 13.4857142857145  0 10.2857142857144  Z " fill-rule="evenodd" />
    </mask>
  </defs>
  <g transform="matrix(1 0 0 1 -2184 -2674 )">
    <path d="M 0 10.2857142857144  L 0 5.71428571428563  C 0 2.51428571428551  2.4682926829268 0  5.60975609756095 0  L 29.2727272727273 0  L 30.2926829268293 0  L 40.3902439024391 0  C 43.5317073170732 0  46 2.51428571428551  46 5.71428571428563  L 46 10.2857142857144  C 46 13.4857142857145  43.5317073170732 16  40.3902439024391 16  L 29.2727272727273 16  L 5.60975609756095 16  C 2.4682926829268 16  0 13.4857142857145  0 10.2857142857144  Z " fill-rule="nonzero" fill="#ffffff" stroke="none" transform="matrix(1 0 0 1 2184 2674 )" />
    <path d="M 0 10.2857142857144  L 0 5.71428571428563  C 0 2.51428571428551  2.4682926829268 0  5.60975609756095 0  L 29.2727272727273 0  L 30.2926829268293 0  L 40.3902439024391 0  C 43.5317073170732 0  46 2.51428571428551  46 5.71428571428563  L 46 10.2857142857144  C 46 13.4857142857145  43.5317073170732 16  40.3902439024391 16  L 29.2727272727273 16  L 5.60975609756095 16  C 2.4682926829268 16  0 13.4857142857145  0 10.2857142857144  Z " stroke-width="2" stroke="#000000" fill="none" transform="matrix(1 0 0 1 2184 2674 )" mask="url(#clip15)" />
  </g>
</svg>