<?xml version="1.0" encoding="utf-8"?>
<svg version="1.1" xmlns:xlink="http://www.w3.org/1999/xlink" width="45px" height="16px" xmlns="http://www.w3.org/2000/svg">
  <defs>
    <mask fill="white" id="clip16">
      <path d="M 0 10.2857142857144  L 0 5.71428571428563  C 0 2.51428571428551  2.41463414634144 0  5.48780487804875 0  L 28.6363636363636 0  L 29.6341463414634 0  L 39.5121951219513 0  C 42.5853658536586 0  45 2.51428571428551  45 5.71428571428563  L 45 10.2857142857144  C 45 13.4857142857145  42.5853658536586 16  39.5121951219513 16  L 28.6363636363636 16  L 5.48780487804875 16  C 2.41463414634144 16  0 13.4857142857145  0 10.2857142857144  Z " fill-rule="evenodd" />
    </mask>
  </defs>
  <g transform="matrix(1 0 0 1 -596 -2730 )">
    <path d="M 0 10.2857142857144  L 0 5.71428571428563  C 0 2.51428571428551  2.41463414634144 0  5.48780487804875 0  L 28.6363636363636 0  L 29.6341463414634 0  L 39.5121951219513 0  C 42.5853658536586 0  45 2.51428571428551  45 5.71428571428563  L 45 10.2857142857144  C 45 13.4857142857145  42.5853658536586 16  39.5121951219513 16  L 28.6363636363636 16  L 5.48780487804875 16  C 2.41463414634144 16  0 13.4857142857145  0 10.2857142857144  Z " fill-rule="nonzero" fill="#ffffff" stroke="none" transform="matrix(1 0 0 1 596 2730 )" />
    <path d="M 0 10.2857142857144  L 0 5.71428571428563  C 0 2.51428571428551  2.41463414634144 0  5.48780487804875 0  L 28.6363636363636 0  L 29.6341463414634 0  L 39.5121951219513 0  C 42.5853658536586 0  45 2.51428571428551  45 5.71428571428563  L 45 10.2857142857144  C 45 13.4857142857145  42.5853658536586 16  39.5121951219513 16  L 28.6363636363636 16  L 5.48780487804875 16  C 2.41463414634144 16  0 13.4857142857145  0 10.2857142857144  Z " stroke-width="2" stroke="#02a7f0" fill="none" transform="matrix(1 0 0 1 596 2730 )" mask="url(#clip16)" />
  </g>
</svg>