<?xml version="1.0" encoding="utf-8"?>
<svg version="1.1" xmlns:xlink="http://www.w3.org/1999/xlink" width="49px" height="17px" xmlns="http://www.w3.org/2000/svg">
  <defs>
    <mask fill="white" id="clip18">
      <path d="M 0 10.9285714285715  L 0 6.07142857142848  C 0 2.67142857142835  2.6292682926829 0  5.97560975609753 0  L 31.1818181818182 0  L 32.2682926829269 0  L 43.0243902439025 0  C 46.3707317073171 0  49 2.67142857142835  49 6.07142857142848  L 49 10.9285714285715  C 49 14.3285714285716  46.3707317073171 17  43.0243902439025 17  L 31.1818181818182 17  L 5.97560975609753 17  C 2.6292682926829 17  0 14.3285714285716  0 10.9285714285715  Z " fill-rule="evenodd" />
    </mask>
  </defs>
  <g transform="matrix(1 0 0 1 -1118 -2726 )">
    <path d="M 0 10.9285714285715  L 0 6.07142857142848  C 0 2.67142857142835  2.6292682926829 0  5.97560975609753 0  L 31.1818181818182 0  L 32.2682926829269 0  L 43.0243902439025 0  C 46.3707317073171 0  49 2.67142857142835  49 6.07142857142848  L 49 10.9285714285715  C 49 14.3285714285716  46.3707317073171 17  43.0243902439025 17  L 31.1818181818182 17  L 5.97560975609753 17  C 2.6292682926829 17  0 14.3285714285716  0 10.9285714285715  Z " fill-rule="nonzero" fill="#ffffff" stroke="none" transform="matrix(1 0 0 1 1118 2726 )" />
    <path d="M 0 10.9285714285715  L 0 6.07142857142848  C 0 2.67142857142835  2.6292682926829 0  5.97560975609753 0  L 31.1818181818182 0  L 32.2682926829269 0  L 43.0243902439025 0  C 46.3707317073171 0  49 2.67142857142835  49 6.07142857142848  L 49 10.9285714285715  C 49 14.3285714285716  46.3707317073171 17  43.0243902439025 17  L 31.1818181818182 17  L 5.97560975609753 17  C 2.6292682926829 17  0 14.3285714285716  0 10.9285714285715  Z " stroke-width="2" stroke="#02a7f0" fill="none" transform="matrix(1 0 0 1 1118 2726 )" mask="url(#clip18)" />
  </g>
</svg>