<?xml version="1.0" encoding="utf-8"?>
<svg version="1.1" xmlns:xlink="http://www.w3.org/1999/xlink" width="42px" height="16px" xmlns="http://www.w3.org/2000/svg">
  <defs>
    <mask fill="white" id="clip19">
      <path d="M 0 10.2857142857144  L 0 5.71428571428563  C 0 2.51428571428551  2.25365853658534 0  5.12195121951217 0  L 26.7272727272727 0  L 27.6585365853659 0  L 36.8780487804878 0  C 39.7463414634147 0  42 2.51428571428551  42 5.71428571428563  L 42 10.2857142857144  C 42 13.4857142857145  39.7463414634147 16  36.8780487804878 16  L 26.7272727272727 16  L 5.12195121951217 16  C 2.25365853658534 16  0 13.4857142857145  0 10.2857142857144  Z " fill-rule="evenodd" />
    </mask>
  </defs>
  <g transform="matrix(1 0 0 1 -870 -2762 )">
    <path d="M 0 10.2857142857144  L 0 5.71428571428563  C 0 2.51428571428551  2.25365853658534 0  5.12195121951217 0  L 26.7272727272727 0  L 27.6585365853659 0  L 36.8780487804878 0  C 39.7463414634147 0  42 2.51428571428551  42 5.71428571428563  L 42 10.2857142857144  C 42 13.4857142857145  39.7463414634147 16  36.8780487804878 16  L 26.7272727272727 16  L 5.12195121951217 16  C 2.25365853658534 16  0 13.4857142857145  0 10.2857142857144  Z " fill-rule="nonzero" fill="#ffffff" stroke="none" transform="matrix(1 0 0 1 870 2762 )" />
    <path d="M 0 10.2857142857144  L 0 5.71428571428563  C 0 2.51428571428551  2.25365853658534 0  5.12195121951217 0  L 26.7272727272727 0  L 27.6585365853659 0  L 36.8780487804878 0  C 39.7463414634147 0  42 2.51428571428551  42 5.71428571428563  L 42 10.2857142857144  C 42 13.4857142857145  39.7463414634147 16  36.8780487804878 16  L 26.7272727272727 16  L 5.12195121951217 16  C 2.25365853658534 16  0 13.4857142857145  0 10.2857142857144  Z " stroke-width="2" stroke="#02a7f0" fill="none" transform="matrix(1 0 0 1 870 2762 )" mask="url(#clip19)" />
  </g>
</svg>