<?xml version="1.0" encoding="utf-8"?>
<svg version="1.1" xmlns:xlink="http://www.w3.org/1999/xlink" width="38px" height="16px" xmlns="http://www.w3.org/2000/svg">
  <defs>
    <mask fill="white" id="clip20">
      <path d="M 0 10.2857142857144  L 0 5.71428571428563  C 0 2.51428571428551  2.03902439024388 0  4.63414634146339 0  L 24.1818181818182 0  L 25.0243902439025 0  L 33.3658536585366 0  C 35.9609756097561 0  38 2.51428571428551  38 5.71428571428563  L 38 10.2857142857144  C 38 13.4857142857145  35.9609756097561 16  33.3658536585366 16  L 24.1818181818182 16  L 4.63414634146339 16  C 2.03902439024388 16  0 13.4857142857145  0 10.2857142857144  Z " fill-rule="evenodd" />
    </mask>
  </defs>
  <g transform="matrix(1 0 0 1 -1113 -2634 )">
    <path d="M 0 10.2857142857144  L 0 5.71428571428563  C 0 2.51428571428551  2.03902439024388 0  4.63414634146339 0  L 24.1818181818182 0  L 25.0243902439025 0  L 33.3658536585366 0  C 35.9609756097561 0  38 2.51428571428551  38 5.71428571428563  L 38 10.2857142857144  C 38 13.4857142857145  35.9609756097561 16  33.3658536585366 16  L 24.1818181818182 16  L 4.63414634146339 16  C 2.03902439024388 16  0 13.4857142857145  0 10.2857142857144  Z " fill-rule="nonzero" fill="#ffffff" stroke="none" transform="matrix(1 0 0 1 1113 2634 )" />
    <path d="M 0 10.2857142857144  L 0 5.71428571428563  C 0 2.51428571428551  2.03902439024388 0  4.63414634146339 0  L 24.1818181818182 0  L 25.0243902439025 0  L 33.3658536585366 0  C 35.9609756097561 0  38 2.51428571428551  38 5.71428571428563  L 38 10.2857142857144  C 38 13.4857142857145  35.9609756097561 16  33.3658536585366 16  L 24.1818181818182 16  L 4.63414634146339 16  C 2.03902439024388 16  0 13.4857142857145  0 10.2857142857144  Z " stroke-width="2" stroke="#000000" fill="none" transform="matrix(1 0 0 1 1113 2634 )" mask="url(#clip20)" />
  </g>
</svg>