<?xml version="1.0" encoding="utf-8"?>
<svg version="1.1" xmlns:xlink="http://www.w3.org/1999/xlink" width="44px" height="17px" xmlns="http://www.w3.org/2000/svg">
  <defs>
    <mask fill="white" id="clip1">
      <path d="M 0 10.9285714285715  L 0 6.07142857142848  C 0 2.67142857142835  2.36097560975607 0  5.36585365853656 0  L 28 0  L 28.9756097560976 0  L 38.6341463414634 0  C 41.6390243902439 0  44 2.67142857142835  44 6.07142857142848  L 44 10.9285714285715  C 44 14.3285714285716  41.6390243902439 17  38.6341463414634 17  L 28 17  L 5.36585365853656 17  C 2.36097560975607 17  0 14.3285714285716  0 10.9285714285715  Z " fill-rule="evenodd" />
    </mask>
  </defs>
  <g transform="matrix(1 0 0 1 -2020 -2697 )">
    <path d="M 0 10.9285714285715  L 0 6.07142857142848  C 0 2.67142857142835  2.36097560975607 0  5.36585365853656 0  L 28 0  L 28.9756097560976 0  L 38.6341463414634 0  C 41.6390243902439 0  44 2.67142857142835  44 6.07142857142848  L 44 10.9285714285715  C 44 14.3285714285716  41.6390243902439 17  38.6341463414634 17  L 28 17  L 5.36585365853656 17  C 2.36097560975607 17  0 14.3285714285716  0 10.9285714285715  Z " fill-rule="nonzero" fill="#ffffff" stroke="none" transform="matrix(1 0 0 1 2020 2697 )" />
    <path d="M 0 10.9285714285715  L 0 6.07142857142848  C 0 2.67142857142835  2.36097560975607 0  5.36585365853656 0  L 28 0  L 28.9756097560976 0  L 38.6341463414634 0  C 41.6390243902439 0  44 2.67142857142835  44 6.07142857142848  L 44 10.9285714285715  C 44 14.3285714285716  41.6390243902439 17  38.6341463414634 17  L 28 17  L 5.36585365853656 17  C 2.36097560975607 17  0 14.3285714285716  0 10.9285714285715  Z " stroke-width="2" stroke="#02a7f0" fill="none" transform="matrix(1 0 0 1 2020 2697 )" mask="url(#clip1)" />
  </g>
</svg>