<?xml version="1.0" encoding="utf-8"?>
<svg version="1.1" xmlns:xlink="http://www.w3.org/1999/xlink" width="52px" height="16px" xmlns="http://www.w3.org/2000/svg">
  <defs>
    <mask fill="white" id="clip21">
      <path d="M 0 10.2857142857144  L 0 5.71428571428563  C 0 2.51428571428551  2.79024390243899 0  6.34146341463411 0  L 33.0909090909091 0  L 34.2439024390244 0  L 45.6585365853659 0  C 49.209756097561 0  52 2.51428571428551  52 5.71428571428563  L 52 10.2857142857144  C 52 13.4857142857145  49.209756097561 16  45.6585365853659 16  L 33.0909090909091 16  L 6.34146341463411 16  C 2.79024390243899 16  0 13.4857142857145  0 10.2857142857144  Z " fill-rule="evenodd" />
    </mask>
  </defs>
  <g transform="matrix(1 0 0 1 -832 -2714 )">
    <path d="M 0 10.2857142857144  L 0 5.71428571428563  C 0 2.51428571428551  2.79024390243899 0  6.34146341463411 0  L 33.0909090909091 0  L 34.2439024390244 0  L 45.6585365853659 0  C 49.209756097561 0  52 2.51428571428551  52 5.71428571428563  L 52 10.2857142857144  C 52 13.4857142857145  49.209756097561 16  45.6585365853659 16  L 33.0909090909091 16  L 6.34146341463411 16  C 2.79024390243899 16  0 13.4857142857145  0 10.2857142857144  Z " fill-rule="nonzero" fill="#ffffff" stroke="none" transform="matrix(1 0 0 1 832 2714 )" />
    <path d="M 0 10.2857142857144  L 0 5.71428571428563  C 0 2.51428571428551  2.79024390243899 0  6.34146341463411 0  L 33.0909090909091 0  L 34.2439024390244 0  L 45.6585365853659 0  C 49.209756097561 0  52 2.51428571428551  52 5.71428571428563  L 52 10.2857142857144  C 52 13.4857142857145  49.209756097561 16  45.6585365853659 16  L 33.0909090909091 16  L 6.34146341463411 16  C 2.79024390243899 16  0 13.4857142857145  0 10.2857142857144  Z " stroke-width="2" stroke="#000000" fill="none" transform="matrix(1 0 0 1 832 2714 )" mask="url(#clip21)" />
  </g>
</svg>