<?xml version="1.0" encoding="utf-8"?>
<svg version="1.1" xmlns:xlink="http://www.w3.org/1999/xlink" width="50px" height="16px" xmlns="http://www.w3.org/2000/svg">
  <defs>
    <mask fill="white" id="clip22">
      <path d="M 0 10.2857142857144  L 0 5.71428571428563  C 0 2.51428571428551  2.68292682926826 0  6.09756097560972 0  L 31.8181818181818 0  L 32.9268292682927 0  L 43.9024390243903 0  C 47.3170731707317 0  50 2.51428571428551  50 5.71428571428563  L 50 10.2857142857144  C 50 13.4857142857145  47.3170731707317 16  43.9024390243903 16  L 31.8181818181818 16  L 6.09756097560972 16  C 2.68292682926826 16  0 13.4857142857145  0 10.2857142857144  Z " fill-rule="evenodd" />
    </mask>
  </defs>
  <g transform="matrix(1 0 0 1 -1082 -2674 )">
    <path d="M 0 10.2857142857144  L 0 5.71428571428563  C 0 2.51428571428551  2.68292682926826 0  6.09756097560972 0  L 31.8181818181818 0  L 32.9268292682927 0  L 43.9024390243903 0  C 47.3170731707317 0  50 2.51428571428551  50 5.71428571428563  L 50 10.2857142857144  C 50 13.4857142857145  47.3170731707317 16  43.9024390243903 16  L 31.8181818181818 16  L 6.09756097560972 16  C 2.68292682926826 16  0 13.4857142857145  0 10.2857142857144  Z " fill-rule="nonzero" fill="#ffffff" stroke="none" transform="matrix(1 0 0 1 1082 2674 )" />
    <path d="M 0 10.2857142857144  L 0 5.71428571428563  C 0 2.51428571428551  2.68292682926826 0  6.09756097560972 0  L 31.8181818181818 0  L 32.9268292682927 0  L 43.9024390243903 0  C 47.3170731707317 0  50 2.51428571428551  50 5.71428571428563  L 50 10.2857142857144  C 50 13.4857142857145  47.3170731707317 16  43.9024390243903 16  L 31.8181818181818 16  L 6.09756097560972 16  C 2.68292682926826 16  0 13.4857142857145  0 10.2857142857144  Z " stroke-width="2" stroke="#000000" fill="none" transform="matrix(1 0 0 1 1082 2674 )" mask="url(#clip22)" />
  </g>
</svg>