<?xml version="1.0" encoding="utf-8"?>
<svg version="1.1" xmlns:xlink="http://www.w3.org/1999/xlink" width="60px" height="16px" xmlns="http://www.w3.org/2000/svg">
  <defs>
    <mask fill="white" id="clip23">
      <path d="M 0 10.2857142857144  L 0 5.71428571428563  C 0 2.51428571428551  3.21951219512192 0  7.31707317073167 0  L 38.1818181818182 0  L 39.5121951219513 0  L 52.6829268292683 0  C 56.7804878048781 0  60 2.51428571428551  60 5.71428571428563  L 60 10.2857142857144  C 60 13.4857142857145  56.7804878048781 16  52.6829268292683 16  L 38.1818181818182 16  L 7.31707317073167 16  C 3.21951219512192 16  0 13.4857142857145  0 10.2857142857144  Z " fill-rule="evenodd" />
    </mask>
  </defs>
  <g transform="matrix(1 0 0 1 -1420 -2679 )">
    <path d="M 0 10.2857142857144  L 0 5.71428571428563  C 0 2.51428571428551  3.21951219512192 0  7.31707317073167 0  L 38.1818181818182 0  L 39.5121951219513 0  L 52.6829268292683 0  C 56.7804878048781 0  60 2.51428571428551  60 5.71428571428563  L 60 10.2857142857144  C 60 13.4857142857145  56.7804878048781 16  52.6829268292683 16  L 38.1818181818182 16  L 7.31707317073167 16  C 3.21951219512192 16  0 13.4857142857145  0 10.2857142857144  Z " fill-rule="nonzero" fill="#ffffff" stroke="none" transform="matrix(1 0 0 1 1420 2679 )" />
    <path d="M 0 10.2857142857144  L 0 5.71428571428563  C 0 2.51428571428551  3.21951219512192 0  7.31707317073167 0  L 38.1818181818182 0  L 39.5121951219513 0  L 52.6829268292683 0  C 56.7804878048781 0  60 2.51428571428551  60 5.71428571428563  L 60 10.2857142857144  C 60 13.4857142857145  56.7804878048781 16  52.6829268292683 16  L 38.1818181818182 16  L 7.31707317073167 16  C 3.21951219512192 16  0 13.4857142857145  0 10.2857142857144  Z " stroke-width="2" stroke="#000000" fill="none" transform="matrix(1 0 0 1 1420 2679 )" mask="url(#clip23)" />
  </g>
</svg>