<?xml version="1.0" encoding="utf-8"?>
<svg version="1.1" xmlns:xlink="http://www.w3.org/1999/xlink" width="43px" height="35px" xmlns="http://www.w3.org/2000/svg">
  <g transform="matrix(1 0 0 1 -376 -382 )">
    <path d="M 15.3571428571429 3  L 15.3571428571429 6  L 27.6428571428571 6  L 27.6428571428571 3  L 15.3571428571429 3  Z M 26.875 20  L 43 20  L 43 31.3541666666667  C 43 32.3567708333333  42.6240699404762 33.2150607638889  41.8722098214286 33.9290364583333  C 41.120349702381 34.6430121527778  40.2165178571429 35  39.1607142857143 35  L 3.83928571428571 35  C 2.78348214285714 35  1.87965029761905 34.6430121527778  1.12779017857143 33.9290364583333  C 0.37593005952381 33.2150607638889  0 32.3567708333333  0 31.3541666666667  L 0 20  L 16.125 20  L 16.125 24.0625  C 16.125 24.4574652777778  16.2769717261905 24.7992621527778  16.5809151785714 25.087890625  C 16.8848586309524 25.3765190972222  17.2447916666667 25.5208333333333  17.6607142857143 25.5208333333333  L 25.3392857142857 25.5208333333333  C 25.7552083333333 25.5208333333333  26.1151413690476 25.3765190972222  26.4190848214286 25.087890625  C 26.7230282738095 24.7992621527778  26.875 24.4574652777778  26.875 24.0625  L 26.875 20  Z M 18.4285714285714 20.4166666666667  L 24.5714285714286 20.4166666666667  L 24.5714285714286 23.3333333333333  L 18.4285714285714 23.3333333333333  L 18.4285714285714 20.4166666666667  Z M 41.8722098214286 6.904296875  C 42.6240699404762 7.61827256944444  43 8.4765625  43 9.47916666666667  L 43 18  L 0 18  L 0 9.47916666666667  C 0 8.4765625  0.37593005952381 7.61827256944444  1.12779017857143 6.904296875  C 1.87965029761905 6.19032118055555  2.78348214285714 5.83333333333333  3.83928571428571 5.83333333333333  L 12.2857142857143 5.83333333333333  L 12.2857142857143 2.1875  C 12.2857142857143 1.57986111111111  12.5096726190476 1.06336805555555  12.9575892857143 0.638020833333332  C 13.405505952381 0.212673611111113  13.9494047619048 0  14.5892857142857 0  L 28.4107142857143 0  C 29.0505952380952 0  29.5944940476191 0.212673611111113  30.0424107142857 0.638020833333332  C 30.4903273809524 1.06336805555555  30.7142857142857 1.57986111111111  30.7142857142857 2.1875  L 30.7142857142857 5.83333333333333  L 39.1607142857143 5.83333333333333  C 40.2165178571429 5.83333333333333  41.120349702381 6.19032118055555  41.8722098214286 6.904296875  Z " fill-rule="nonzero" fill="#b8741a" stroke="none" transform="matrix(1 0 0 1 376 382 )" />
  </g>
</svg>