<?xml version="1.0" encoding="utf-8"?>
<svg version="1.1" xmlns:xlink="http://www.w3.org/1999/xlink" width="20px" height="20px" xmlns="http://www.w3.org/2000/svg">
  <g transform="matrix(1 0 0 1 -2450 -5106 )">
    <path d="M 2460 5106  C 2465.6 5106  2470 5110.4  2470 5116  C 2470 5121.6  2465.6 5126  2460 5126  C 2454.4 5126  2450 5121.6  2450 5116  C 2450 5110.4  2454.4 5106  2460 5106  Z " fill-rule="nonzero" fill="#ffffff" stroke="none" />
    <path d="M 2460 5106.5  C 2465.32 5106.5  2469.5 5110.68  2469.5 5116  C 2469.5 5121.32  2465.32 5125.5  2460 5125.5  C 2454.68 5125.5  2450.5 5121.32  2450.5 5116  C 2450.5 5110.68  2454.68 5106.5  2460 5106.5  Z " stroke-width="1" stroke="#c9c9c9" fill="none" />
  </g>
</svg>