<?xml version="1.0" encoding="utf-8"?>
<svg version="1.1" xmlns:xlink="http://www.w3.org/1999/xlink" width="82px" height="19px" xmlns="http://www.w3.org/2000/svg">
  <defs>
    <mask fill="white" id="clip327">
      <path d="M 0 19  L 0 0  L 43.0224215246637 0  L 44.8609865470852 0  L 51.1121076233184 0  L 82 0  L 82 19  L 45.2286995515695 19  L 0 19  Z " fill-rule="evenodd" />
    </mask>
  </defs>
  <g transform="matrix(1 0 0 1 -551 -300 )">
    <path d="M 0 19  L 0 0  L 43.0224215246637 0  L 44.8609865470852 0  L 51.1121076233184 0  L 82 0  L 82 19  L 45.2286995515695 19  L 0 19  Z " fill-rule="nonzero" fill="#f2f2f2" stroke="none" transform="matrix(1 0 0 1 551 300 )" />
    <path d="M 0 19  L 0 0  L 43.0224215246637 0  L 44.8609865470852 0  L 51.1121076233184 0  L 82 0  L 82 19  L 45.2286995515695 19  L 0 19  Z " stroke-width="2" stroke="#797979" fill="none" transform="matrix(1 0 0 1 551 300 )" mask="url(#clip327)" />
  </g>
</svg>