<?xml version="1.0" encoding="utf-8"?>
<svg version="1.1" xmlns:xlink="http://www.w3.org/1999/xlink" width="65px" height="16px" xmlns="http://www.w3.org/2000/svg">
  <defs>
    <mask fill="white" id="clip331">
      <path d="M 0 10.2857142857143  L 0 5.71428571428571  C 0 2.51428571428551  3.48780487804885 0  7.92682926829268 0  L 42.8048780487805 0  L 57.0731707317073 0  C 61.5121951219511 0  65 2.51428571428551  65 5.71428571428571  L 65 10.2857142857143  C 65 13.4857142857145  61.5121951219511 16  57.0731707317073 16  L 7.92682926829268 16  C 3.48780487804885 16  0 13.4857142857145  0 10.2857142857143  Z " fill-rule="evenodd" />
    </mask>
  </defs>
  <g transform="matrix(1 0 0 1 -679 -548 )">
    <path d="M 0 10.2857142857143  L 0 5.71428571428571  C 0 2.51428571428551  3.48780487804885 0  7.92682926829268 0  L 42.8048780487805 0  L 57.0731707317073 0  C 61.5121951219511 0  65 2.51428571428551  65 5.71428571428571  L 65 10.2857142857143  C 65 13.4857142857145  61.5121951219511 16  57.0731707317073 16  L 7.92682926829268 16  C 3.48780487804885 16  0 13.4857142857145  0 10.2857142857143  Z " fill-rule="nonzero" fill="#ffffff" stroke="none" transform="matrix(1 0 0 1 679 548 )" />
    <path d="M 0 10.2857142857143  L 0 5.71428571428571  C 0 2.51428571428551  3.48780487804885 0  7.92682926829268 0  L 42.8048780487805 0  L 57.0731707317073 0  C 61.5121951219511 0  65 2.51428571428551  65 5.71428571428571  L 65 10.2857142857143  C 65 13.4857142857145  61.5121951219511 16  57.0731707317073 16  L 7.92682926829268 16  C 3.48780487804885 16  0 13.4857142857145  0 10.2857142857143  Z " stroke-width="2" stroke="#02a7f0" fill="none" transform="matrix(1 0 0 1 679 548 )" mask="url(#clip331)" />
  </g>
</svg>