<?xml version="1.0" encoding="utf-8"?>
<svg version="1.1" xmlns:xlink="http://www.w3.org/1999/xlink" width="76px" height="19px" xmlns="http://www.w3.org/2000/svg">
  <defs>
    <mask fill="white" id="clip332">
      <path d="M 0 19  L 0 0  L 39.8744394618834 0  L 41.5784753363229 0  L 47.372197309417 0  L 76 0  L 76 19  L 41.9192825112108 19  L 0 19  Z " fill-rule="evenodd" />
    </mask>
  </defs>
  <g transform="matrix(1 0 0 1 -1423 -293 )">
    <path d="M 0 19  L 0 0  L 39.8744394618834 0  L 41.5784753363229 0  L 47.372197309417 0  L 76 0  L 76 19  L 41.9192825112108 19  L 0 19  Z " fill-rule="nonzero" fill="#f2f2f2" stroke="none" transform="matrix(1 0 0 1 1423 293 )" />
    <path d="M 0 19  L 0 0  L 39.8744394618834 0  L 41.5784753363229 0  L 47.372197309417 0  L 76 0  L 76 19  L 41.9192825112108 19  L 0 19  Z " stroke-width="2" stroke="#797979" fill="none" transform="matrix(1 0 0 1 1423 293 )" mask="url(#clip332)" />
  </g>
</svg>