<?xml version="1.0" encoding="utf-8"?>
<svg version="1.1" xmlns:xlink="http://www.w3.org/1999/xlink" width="65px" height="18px" xmlns="http://www.w3.org/2000/svg">
  <defs>
    <mask fill="white" id="clip336">
      <path d="M 0 11.5714285714287  L 0 6.42857142857133  C 0 2.82857142857119  3.48780487804874 0  7.92682926829264 0  L 41.3636363636364 0  L 42.8048780487805 0  L 57.0731707317074 0  C 61.5121951219513 0  65 2.82857142857119  65 6.42857142857133  L 65 11.5714285714287  C 65 15.1714285714288  61.5121951219513 18  57.0731707317074 18  L 41.3636363636364 18  L 7.92682926829264 18  C 3.48780487804874 18  0 15.1714285714288  0 11.5714285714287  Z " fill-rule="evenodd" />
    </mask>
  </defs>
  <g transform="matrix(1 0 0 1 -1897 -333 )">
    <path d="M 0 11.5714285714287  L 0 6.42857142857133  C 0 2.82857142857119  3.48780487804874 0  7.92682926829264 0  L 41.3636363636364 0  L 42.8048780487805 0  L 57.0731707317074 0  C 61.5121951219513 0  65 2.82857142857119  65 6.42857142857133  L 65 11.5714285714287  C 65 15.1714285714288  61.5121951219513 18  57.0731707317074 18  L 41.3636363636364 18  L 7.92682926829264 18  C 3.48780487804874 18  0 15.1714285714288  0 11.5714285714287  Z " fill-rule="nonzero" fill="#ffffff" stroke="none" transform="matrix(1 0 0 1 1897 333 )" />
    <path d="M 0 11.5714285714287  L 0 6.42857142857133  C 0 2.82857142857119  3.48780487804874 0  7.92682926829264 0  L 41.3636363636364 0  L 42.8048780487805 0  L 57.0731707317074 0  C 61.5121951219513 0  65 2.82857142857119  65 6.42857142857133  L 65 11.5714285714287  C 65 15.1714285714288  61.5121951219513 18  57.0731707317074 18  L 41.3636363636364 18  L 7.92682926829264 18  C 3.48780487804874 18  0 15.1714285714288  0 11.5714285714287  Z " stroke-width="2" stroke="#000000" fill="none" transform="matrix(1 0 0 1 1897 333 )" mask="url(#clip336)" />
  </g>
</svg>