<?xml version="1.0" encoding="utf-8"?>
<svg version="1.1" xmlns:xlink="http://www.w3.org/1999/xlink" width="45px" height="18px" xmlns="http://www.w3.org/2000/svg">
  <defs>
    <mask fill="white" id="clip337">
      <path d="M 0 11.5714285714286  L 0 6.42857142857143  C 0 2.82857142857119  2.41463414634151 0  5.48780487804878 0  L 29.6341463414634 0  L 39.5121951219512 0  C 42.5853658536585 0  45 2.82857142857119  45 6.42857142857143  L 45 11.5714285714286  C 45 15.1714285714288  42.5853658536585 18  39.5121951219512 18  L 5.48780487804878 18  C 2.41463414634151 18  0 15.1714285714288  0 11.5714285714286  Z " fill-rule="evenodd" />
    </mask>
  </defs>
  <g transform="matrix(1 0 0 1 -1747 -334 )">
    <path d="M 0 11.5714285714286  L 0 6.42857142857143  C 0 2.82857142857119  2.41463414634151 0  5.48780487804878 0  L 29.6341463414634 0  L 39.5121951219512 0  C 42.5853658536585 0  45 2.82857142857119  45 6.42857142857143  L 45 11.5714285714286  C 45 15.1714285714288  42.5853658536585 18  39.5121951219512 18  L 5.48780487804878 18  C 2.41463414634151 18  0 15.1714285714288  0 11.5714285714286  Z " fill-rule="nonzero" fill="#ffffff" stroke="none" transform="matrix(1 0 0 1 1747 334 )" />
    <path d="M 0 11.5714285714286  L 0 6.42857142857143  C 0 2.82857142857119  2.41463414634151 0  5.48780487804878 0  L 29.6341463414634 0  L 39.5121951219512 0  C 42.5853658536585 0  45 2.82857142857119  45 6.42857142857143  L 45 11.5714285714286  C 45 15.1714285714288  42.5853658536585 18  39.5121951219512 18  L 5.48780487804878 18  C 2.41463414634151 18  0 15.1714285714288  0 11.5714285714286  Z " stroke-width="2" stroke="#02a7f0" fill="none" transform="matrix(1 0 0 1 1747 334 )" mask="url(#clip337)" />
  </g>
</svg>