<?xml version="1.0" encoding="utf-8"?>
<svg version="1.1" xmlns:xlink="http://www.w3.org/1999/xlink" width="55px" height="18px" xmlns="http://www.w3.org/2000/svg">
  <defs>
    <mask fill="white" id="clip338">
      <path d="M 0 11.5714285714287  L 0 6.42857142857133  C 0 2.82857142857119  2.95121951219509 0  6.7073170731707 0  L 35 0  L 36.219512195122 0  L 48.2926829268293 0  C 52.0487804878049 0  55 2.82857142857119  55 6.42857142857133  L 55 11.5714285714287  C 55 15.1714285714288  52.0487804878049 18  48.2926829268293 18  L 35 18  L 6.7073170731707 18  C 2.95121951219509 18  0 15.1714285714288  0 11.5714285714287  Z " fill-rule="evenodd" />
    </mask>
  </defs>
  <g transform="matrix(1 0 0 1 -1844 -380 )">
    <path d="M 0 11.5714285714287  L 0 6.42857142857133  C 0 2.82857142857119  2.95121951219509 0  6.7073170731707 0  L 35 0  L 36.219512195122 0  L 48.2926829268293 0  C 52.0487804878049 0  55 2.82857142857119  55 6.42857142857133  L 55 11.5714285714287  C 55 15.1714285714288  52.0487804878049 18  48.2926829268293 18  L 35 18  L 6.7073170731707 18  C 2.95121951219509 18  0 15.1714285714288  0 11.5714285714287  Z " fill-rule="nonzero" fill="#ffffff" stroke="none" transform="matrix(1 0 0 1 1844 380 )" />
    <path d="M 0 11.5714285714287  L 0 6.42857142857133  C 0 2.82857142857119  2.95121951219509 0  6.7073170731707 0  L 35 0  L 36.219512195122 0  L 48.2926829268293 0  C 52.0487804878049 0  55 2.82857142857119  55 6.42857142857133  L 55 11.5714285714287  C 55 15.1714285714288  52.0487804878049 18  48.2926829268293 18  L 35 18  L 6.7073170731707 18  C 2.95121951219509 18  0 15.1714285714288  0 11.5714285714287  Z " stroke-width="2" stroke="#333333" fill="none" transform="matrix(1 0 0 1 1844 380 )" mask="url(#clip338)" />
  </g>
</svg>