<?xml version="1.0" encoding="utf-8"?>
<svg version="1.1" xmlns:xlink="http://www.w3.org/1999/xlink" width="45px" height="18px" xmlns="http://www.w3.org/2000/svg">
  <defs>
    <mask fill="white" id="clip340">
      <path d="M 0 11.5714285714287  L 0 6.42857142857133  C 0 2.82857142857119  2.41463414634144 0  5.48780487804875 0  L 28.6363636363636 0  L 29.6341463414634 0  L 39.5121951219513 0  C 42.5853658536586 0  45 2.82857142857119  45 6.42857142857133  L 45 11.5714285714287  C 45 15.1714285714288  42.5853658536586 18  39.5121951219513 18  L 28.6363636363636 18  L 5.48780487804875 18  C 2.41463414634144 18  0 15.1714285714288  0 11.5714285714287  Z " fill-rule="evenodd" />
    </mask>
  </defs>
  <g transform="matrix(1 0 0 1 -1748 -402 )">
    <path d="M 0 11.5714285714287  L 0 6.42857142857133  C 0 2.82857142857119  2.41463414634144 0  5.48780487804875 0  L 28.6363636363636 0  L 29.6341463414634 0  L 39.5121951219513 0  C 42.5853658536586 0  45 2.82857142857119  45 6.42857142857133  L 45 11.5714285714287  C 45 15.1714285714288  42.5853658536586 18  39.5121951219513 18  L 28.6363636363636 18  L 5.48780487804875 18  C 2.41463414634144 18  0 15.1714285714288  0 11.5714285714287  Z " fill-rule="nonzero" fill="#ffffff" stroke="none" transform="matrix(1 0 0 1 1748 402 )" />
    <path d="M 0 11.5714285714287  L 0 6.42857142857133  C 0 2.82857142857119  2.41463414634144 0  5.48780487804875 0  L 28.6363636363636 0  L 29.6341463414634 0  L 39.5121951219513 0  C 42.5853658536586 0  45 2.82857142857119  45 6.42857142857133  L 45 11.5714285714287  C 45 15.1714285714288  42.5853658536586 18  39.5121951219513 18  L 28.6363636363636 18  L 5.48780487804875 18  C 2.41463414634144 18  0 15.1714285714288  0 11.5714285714287  Z " stroke-width="2" stroke="#000000" fill="none" transform="matrix(1 0 0 1 1748 402 )" mask="url(#clip340)" />
  </g>
</svg>