<?xml version="1.0" encoding="utf-8"?>
<svg version="1.1" xmlns:xlink="http://www.w3.org/1999/xlink" width="70px" height="75px" xmlns="http://www.w3.org/2000/svg">
  <g transform="matrix(1 0 0 1 -1086 -1054 )">
    <path d="M 1086 1054  L 1156 1054  L 1156 1129  L 1086 1129  L 1086 1054  " fill-rule="nonzero" fill="#cccccc" stroke="none" />
    <path d="M 1091 1059  L 1151 1059  L 1151 1124  L 1091 1124  L 1091 1059  " fill-rule="nonzero" fill="#ffffff" stroke="none" />
    <path d="M 1127.65 1075.75  C 1124.71 1075.75  1122.4 1073.44  1122.4 1070.5  C 1122.4 1067.56  1124.71 1065.25  1127.65 1065.25  C 1130.59 1065.25  1132.9 1067.56  1132.9 1070.5  C 1132.9 1073.44  1130.59 1075.75  1127.65 1075.75  " fill-rule="nonzero" fill="#cccccc" stroke="none" />
    <path d="M 1093 1122  L 1093 1088.45  L 1107 1073.2  L 1126.6 1085.4  L 1137.8 1082.35  L 1149 1085.4  L 1149 1122  L 1093 1122  " fill-rule="nonzero" fill="#169bd5" stroke="none" />
  </g>
</svg>