<?xml version="1.0" encoding="utf-8"?>
<svg version="1.1" xmlns:xlink="http://www.w3.org/1999/xlink" width="55px" height="16px" xmlns="http://www.w3.org/2000/svg">
  <defs>
    <mask fill="white" id="clip328">
      <path d="M 0 10.2857142857143  L 0 5.71428571428571  C 0 2.51428571428551  2.95121951219518 0  6.70731707317073 0  L 36.219512195122 0  L 48.2926829268293 0  C 52.0487804878048 0  55 2.51428571428551  55 5.71428571428571  L 55 10.2857142857143  C 55 13.4857142857145  52.0487804878048 16  48.2926829268293 16  L 6.70731707317073 16  C 2.95121951219518 16  0 13.4857142857145  0 10.2857142857143  Z " fill-rule="evenodd" />
    </mask>
  </defs>
  <g transform="matrix(1 0 0 1 -613 -380 )">
    <path d="M 0 10.2857142857143  L 0 5.71428571428571  C 0 2.51428571428551  2.95121951219518 0  6.70731707317073 0  L 36.219512195122 0  L 48.2926829268293 0  C 52.0487804878048 0  55 2.51428571428551  55 5.71428571428571  L 55 10.2857142857143  C 55 13.4857142857145  52.0487804878048 16  48.2926829268293 16  L 6.70731707317073 16  C 2.95121951219518 16  0 13.4857142857145  0 10.2857142857143  Z " fill-rule="nonzero" fill="#ffffff" stroke="none" transform="matrix(1 0 0 1 613 380 )" />
    <path d="M 0 10.2857142857143  L 0 5.71428571428571  C 0 2.51428571428551  2.95121951219518 0  6.70731707317073 0  L 36.219512195122 0  L 48.2926829268293 0  C 52.0487804878048 0  55 2.51428571428551  55 5.71428571428571  L 55 10.2857142857143  C 55 13.4857142857145  52.0487804878048 16  48.2926829268293 16  L 6.70731707317073 16  C 2.95121951219518 16  0 13.4857142857145  0 10.2857142857143  Z " stroke-width="2" stroke="#02a7f0" fill="none" transform="matrix(1 0 0 1 613 380 )" mask="url(#clip328)" />
  </g>
</svg>