<?xml version="1.0" encoding="utf-8"?>
<svg version="1.1" xmlns:xlink="http://www.w3.org/1999/xlink" width="16px" height="17px" xmlns="http://www.w3.org/2000/svg">
  <g transform="matrix(1 0 0 1 -205 -269 )">
    <path d="M 2.20089285714286 14.0237926136364  C 2.25744047619048 14.1002604166667  2.28571428571429 14.1908143939394  2.28571428571429 14.2954545454545  L 2.28571428571429 16.6136363636364  C 2.28571428571429 16.7182765151515  2.25744047619048 16.8088304924242  2.20089285714286 16.8852982954545  C 2.14434523809524 16.9617660984848  2.07738095238095 17  2 17  L 0.285714285714286 17  C 0.208333333333333 17  0.141369047619048 16.9617660984848  0.0848214285714286 16.8852982954545  C 0.0282738095238095 16.8088304924242  0 16.7182765151515  0 16.6136363636364  L 0 14.2954545454545  C 0 14.1908143939394  0.0282738095238095 14.1002604166667  0.0848214285714286 14.0237926136364  C 0.141369047619048 13.9473248106061  0.208333333333333 13.9090909090909  0.285714285714286 13.9090909090909  L 2 13.9090909090909  C 2.07738095238095 13.9090909090909  2.14434523809524 13.9473248106061  2.20089285714286 14.0237926136364  Z M 2.20089285714286 9.38742897727273  C 2.25744047619048 9.46389678030303  2.28571428571429 9.55445075757576  2.28571428571429 9.65909090909091  L 2.28571428571429 11.9772727272727  C 2.28571428571429 12.0819128787879  2.25744047619048 12.1724668560606  2.20089285714286 12.2489346590909  C 2.14434523809524 12.3254024621212  2.07738095238095 12.3636363636364  2 12.3636363636364  L 0.285714285714286 12.3636363636364  C 0.208333333333333 12.3636363636364  0.141369047619048 12.3254024621212  0.0848214285714286 12.2489346590909  C 0.0282738095238095 12.1724668560606  0 12.0819128787879  0 11.9772727272727  L 0 9.65909090909091  C 0 9.55445075757576  0.0282738095238095 9.46389678030303  0.0848214285714286 9.38742897727273  C 0.141369047619048 9.31096117424242  0.208333333333333 9.27272727272727  0.285714285714286 9.27272727272727  L 2 9.27272727272727  C 2.07738095238095 9.27272727272727  2.14434523809524 9.31096117424242  2.20089285714286 9.38742897727273  Z M 2.20089285714286 4.75106534090909  C 2.25744047619048 4.82753314393939  2.28571428571429 4.91808712121212  2.28571428571429 5.02272727272727  L 2.28571428571429 7.34090909090909  C 2.28571428571429 7.44554924242424  2.25744047619048 7.53610321969697  2.20089285714286 7.61257102272727  C 2.14434523809524 7.68903882575758  2.07738095238095 7.72727272727273  2 7.72727272727273  L 0.285714285714286 7.72727272727273  C 0.208333333333333 7.72727272727273  0.141369047619048 7.68903882575758  0.0848214285714286 7.61257102272727  C 0.0282738095238095 7.53610321969697  0 7.44554924242424  0 7.34090909090909  L 0 5.02272727272727  C 0 4.91808712121212  0.0282738095238095 4.82753314393939  0.0848214285714286 4.75106534090909  C 0.141369047619048 4.67459753787879  0.208333333333333 4.63636363636364  0.285714285714286 4.63636363636364  L 2 4.63636363636364  C 2.07738095238095 4.63636363636364  2.14434523809524 4.67459753787879  2.20089285714286 4.75106534090909  Z M 15.9151785714286 14.0237926136364  C 15.9717261904762 14.1002604166667  16 14.1908143939394  16 14.2954545454545  L 16 16.6136363636364  C 16 16.7182765151515  15.9717261904762 16.8088304924242  15.9151785714286 16.8852982954545  C 15.858630952381 16.9617660984848  15.7916666666667 17  15.7142857142857 17  L 3.71428571428571 17  C 3.63690476190476 17  3.56994047619048 16.9617660984848  3.51339285714286 16.8852982954545  C 3.45684523809524 16.8088304924242  3.42857142857143 16.7182765151515  3.42857142857143 16.6136363636364  L 3.42857142857143 14.2954545454545  C 3.42857142857143 14.1908143939394  3.45684523809524 14.1002604166667  3.51339285714286 14.0237926136364  C 3.56994047619048 13.9473248106061  3.63690476190476 13.9090909090909  3.71428571428571 14  L 15.7142857142857 14  C 15.7916666666667 13.9090909090909  15.858630952381 13.9473248106061  15.9151785714286 14.0237926136364  Z M 2.20089285714286 0.114701704545454  C 2.25744047619048 0.191169507575757  2.28571428571429 0.281723484848483  2.28571428571429 0.386363636363636  L 2.28571428571429 2.70454545454545  C 2.28571428571429 2.8091856060606  2.25744047619048 2.89973958333333  2.20089285714286 2.97620738636364  C 2.14434523809524 3.05267518939394  2.07738095238095 3.09090909090909  2 3.09090909090909  L 0.285714285714286 3.09090909090909  C 0.208333333333333 3.09090909090909  0.141369047619048 3.05267518939394  0.0848214285714286 2.97620738636364  C 0.0282738095238095 2.89973958333333  0 2.8091856060606  0 2.70454545454545  L 0 0.386363636363636  C 0 0.281723484848483  0.0282738095238095 0.191169507575757  0.0848214285714286 0.114701704545454  C 0.141369047619048 0.0382339015151488  0.208333333333333 0  0.285714285714286 0  L 2 0  C 2.07738095238095 0  2.14434523809524 0.0382339015151488  2.20089285714286 0.114701704545454  Z M 15.9151785714286 9.38742897727273  C 15.9717261904762 9.46389678030303  16 9.55445075757576  16 9.65909090909091  L 16 11.9772727272727  C 16 12.0819128787879  15.9717261904762 12.1724668560606  15.9151785714286 12.2489346590909  C 15.858630952381 12.3254024621212  15.7916666666667 12.3636363636364  15.7142857142857 12.3636363636364  L 3.71428571428571 12.3636363636364  C 3.63690476190476 12.3636363636364  3.56994047619048 12.3254024621212  3.51339285714286 12.2489346590909  C 3.45684523809524 12.1724668560606  3.42857142857143 12.0819128787879  3.42857142857143 11.9772727272727  L 3.42857142857143 9.65909090909091  C 3.42857142857143 9.55445075757576  3.45684523809524 9.46389678030303  3.51339285714286 9.38742897727273  C 3.56994047619048 9.31096117424242  3.63690476190476 9.27272727272727  3.71428571428571 9  L 15.7142857142857 9  C 15.7916666666667 9.27272727272727  15.858630952381 9.31096117424242  15.9151785714286 9.38742897727273  Z M 15.9151785714286 4.75106534090909  C 15.9717261904762 4.82753314393939  16 4.91808712121212  16 5.02272727272727  L 16 7.34090909090909  C 16 7.44554924242424  15.9717261904762 7.53610321969697  15.9151785714286 7.61257102272727  C 15.858630952381 7.68903882575758  15.7916666666667 7.72727272727273  15.7142857142857 8  L 3.71428571428571 8  C 3.63690476190476 7.72727272727273  3.56994047619048 7.68903882575758  3.51339285714286 7.61257102272727  C 3.45684523809524 7.53610321969697  3.42857142857143 7.44554924242424  3.42857142857143 7.34090909090909  L 3.42857142857143 5.02272727272727  C 3.42857142857143 4.91808712121212  3.45684523809524 4.82753314393939  3.51339285714286 4.75106534090909  C 3.56994047619048 4.67459753787879  3.63690476190476 4.63636363636364  3.71428571428571 4.63636363636364  L 15.7142857142857 4.63636363636364  C 15.7916666666667 4.63636363636364  15.858630952381 4.67459753787879  15.9151785714286 4.75106534090909  Z M 15.9151785714286 0.114701704545454  C 15.9717261904762 0.191169507575757  16 0.281723484848483  16 0.386363636363636  L 16 2.70454545454545  C 16 2.8091856060606  15.9717261904762 2.89973958333333  15.9151785714286 2.97620738636364  C 15.858630952381 3.05267518939394  15.7916666666667 3.09090909090909  15.7142857142857 3  L 3.71428571428571 3  C 3.63690476190476 3.09090909090909  3.56994047619048 3.05267518939394  3.51339285714286 2.97620738636364  C 3.45684523809524 2.89973958333333  3.42857142857143 2.8091856060606  3.42857142857143 2.70454545454545  L 3.42857142857143 0.386363636363636  C 3.42857142857143 0.281723484848483  3.45684523809524 0.191169507575757  3.51339285714286 0.114701704545454  C 3.56994047619048 0.0382339015151488  3.63690476190476 0  3.71428571428571 0  L 15.7142857142857 0  C 15.7916666666667 0  15.858630952381 0.0382339015151488  15.9151785714286 0.114701704545454  Z " fill-rule="nonzero" fill="#ffffff" stroke="none" transform="matrix(1 0 0 1 205 269 )" />
  </g>
</svg>