<?xml version="1.0" encoding="utf-8"?>
<svg version="1.1" xmlns:xlink="http://www.w3.org/1999/xlink" width="44px" height="16px" xmlns="http://www.w3.org/2000/svg">
  <defs>
    <mask fill="white" id="clip329">
      <path d="M 0 10.2857142857143  L 0 5.71428571428571  C 0 2.51428571428551  2.36097560975615 0  5.36585365853658 0  L 28.9756097560976 0  L 38.6341463414634 0  C 41.6390243902439 0  44 2.51428571428551  44 5.71428571428571  L 44 10.2857142857143  C 44 13.4857142857145  41.6390243902439 16  38.6341463414634 16  L 5.36585365853658 16  C 2.36097560975615 16  0 13.4857142857145  0 10.2857142857143  Z " fill-rule="evenodd" />
    </mask>
  </defs>
  <g transform="matrix(1 0 0 1 -678 -380 )">
    <path d="M 0 10.2857142857143  L 0 5.71428571428571  C 0 2.51428571428551  2.36097560975615 0  5.36585365853658 0  L 28.9756097560976 0  L 38.6341463414634 0  C 41.6390243902439 0  44 2.51428571428551  44 5.71428571428571  L 44 10.2857142857143  C 44 13.4857142857145  41.6390243902439 16  38.6341463414634 16  L 5.36585365853658 16  C 2.36097560975615 16  0 13.4857142857145  0 10.2857142857143  Z " fill-rule="nonzero" fill="#ffffff" stroke="none" transform="matrix(1 0 0 1 678 380 )" />
    <path d="M 0 10.2857142857143  L 0 5.71428571428571  C 0 2.51428571428551  2.36097560975615 0  5.36585365853658 0  L 28.9756097560976 0  L 38.6341463414634 0  C 41.6390243902439 0  44 2.51428571428551  44 5.71428571428571  L 44 10.2857142857143  C 44 13.4857142857145  41.6390243902439 16  38.6341463414634 16  L 5.36585365853658 16  C 2.36097560975615 16  0 13.4857142857145  0 10.2857142857143  Z " stroke-width="2" stroke="#02a7f0" fill="none" transform="matrix(1 0 0 1 678 380 )" mask="url(#clip329)" />
  </g>
</svg>