<?xml version="1.0" encoding="utf-8"?>
<svg version="1.1" xmlns:xlink="http://www.w3.org/1999/xlink" width="38px" height="33px" xmlns="http://www.w3.org/2000/svg">
  <g transform="matrix(1 0 0 1 -302 -307 )">
    <path d="M 32.5377942998761 18.8534684333593  C 32.5534902932672 18.887763055339  32.5613382899628 18.9392049883087  32 19.0077942322681  L 32 31.3538581449727  C 32.5613382899628 31.7996882307093  32.4122263527468 32.1855027279813  32.1140024783147 32.5113016367888  C 31.8157786038827 32.8371005455963  31.4626187525816 33  31.0545229244114 33  L 22.0136307311029 33  L 22.0136307311029 23.1231488698363  L 15.9863692688971 23.1231488698363  L 15.9863692688971 33  L 6.9454770755886 33  C 6.53738124741842 33  6.18422139611731 32.8371005455963  5.88599752168525 32.5113016367888  C 5.5877736472532 32.1855027279813  5.43866171003717 31.7996882307093  6 31.3538581449727  L 6 19.0077942322681  C 5.43866171003717 18.9906469212783  5.44258570838497 18.9649259547935  5.45043370508055 18.9306313328137  C 5.45828170177613 18.896336710834  5.46220570012392 18.8706157443492  5.46220570012392 18.8534684333593  L 19 6.66173031956352  L 32.5377942998761 18.8534684333593  Z M 37.9764560099133 16.628604832424  C 37.9921520033044 16.8600935307872  37.9372160264354 17.0615744349182  37.8116480793061 17.2330475448168  L 36.3519206939281 19.1363990646921  C 36.2263527467988 19.2907248636009  36.0615448161917 19.3850350740452  35.8574969021066 19.4193296960249  L 35.7868649318463 19.4193296960249  C 35.5828170177613 19.4193296960249  35.4180090871541 19.3593141075604  35.2924411400248 19.2392829306313  L 19 4.39828526890101  L 2.70755885997522 19.2392829306313  C 2.51920693928129 19.3764614185503  2.33085501858736 19.4364770070148  2.14250309789343 19.4193296960249  C 1.93845518380834 19.3850350740452  1.77364725320116 19.2907248636009  1.64807930607187 19.1363990646921  L 0.188351920693928 17.2330475448168  C 0.0627839735646427 17.0615744349182  0.00784799669558039 16.8600935307872  0.023543990086741 16.628604832424  C 0.0392399834779018 16.3971161340608  0.125567947129285 16.2127825409197  0.282527881040892 16.0756040530008  L 17.2106567534077 0.668745128604833  C 17.7129285419248 0.222915042868274  18.3093762907889 0  19 0  C 19.6906237092111 0  20.2870714580752 0.222915042868274  20.7893432465923 0.668745128604833  L 26.5340768277571 5.91582229150429  L 26.5340768277571 0.900233826968042  C 26.5340768277571 0.660171473109895  26.6047087980173 0.462977396726421  26.7459727385378 0.308651597817617  C 26.8872366790582 0.154325798908808  27.0677406030566 0.0771628994544041  27.2874845105328 0.0771628994544041  L 31.8079306071871 0.0771628994544041  C 32.0276745146634 0.0771628994544041  32.2081784386617 0.154325798908808  32.3494423791822 0.308651597817617  C 32.4907063197026 0.462977396726421  32.5613382899628 0.660171473109895  32 0.900233826968042  L 32 11.394388152767  L 37.7174721189591 16.0756040530008  C 37.8744320528707 16.2127825409197  37.9607600165221 16.3971161340608  37.9764560099133 16.628604832424  Z " fill-rule="nonzero" fill="#4b7902" stroke="none" transform="matrix(1 0 0 1 302 307 )" />
  </g>
</svg>