<?xml version="1.0" encoding="utf-8"?>
<svg version="1.1" xmlns:xlink="http://www.w3.org/1999/xlink" width="10px" height="10px" xmlns="http://www.w3.org/2000/svg">
  <g transform="matrix(1 0 0 1 -2158 -335 )">
    <path d="M 8.33333333333333 2.85714285714286  C 8.33333333333333 3.40401785714286  8.16189236111111 3.90997023809524  7.81901041666667 4.375  C 8.02300347222222 4.42708333333333  8.21723090277778 4.49776785714286  8.40169270833333 4.58705357142857  C 8.58615451388889 4.67633928571429  8.779296875 4.81212797619048  8.98111979166667 4.99441964285714  C 9.18294270833333 5.17671130952381  9.35546875 5.39155505952381  9.49869791666667 5.63895089285714  C 9.64192708333333 5.88634672619048  9.76128472222222 6.20628720238095  9.85677083333333 6.59877232142857  C 9.95225694444444 6.99125744047619  10 7.43117559523809  10 7.91852678571429  C 10 8.49144345238095  9.78298611111111 8.98158482142857  9.34895833333333 9.38895089285714  C 8.91493055555556 9.79631696428571  8.39192708333333 10  7.77994791666667 10  L 2.22005208333333 10  C 1.60807291666667 10  1.08506944444444 9.79631696428571  0.651041666666667 9.38895089285714  C 0.217013888888889 8.98158482142857  0 8.49144345238095  0 7.91852678571429  C 0 7.43117559523809  0.0477430555555556 6.99125744047619  0.143229166666667 6.59877232142857  C 0.238715277777778 6.20628720238095  0.358072916666667 5.88634672619048  0.501302083333333 5.63895089285714  C 0.64453125 5.39155505952381  0.817057291666667 5.17671130952381  1.01888020833333 4.99441964285714  C 1.220703125 4.81212797619048  1.41384548611111 4.67633928571429  1.59830729166667 4.58705357142857  C 1.78276909722222 4.49776785714286  1.97699652777778 4.42708333333333  2.18098958333333 4.375  C 1.83810763888889 3.90997023809524  1.66666666666667 3.40401785714286  1.66666666666667 2.85714285714286  C 1.66666666666667 2.47023809523809  1.75455729166667 2.10100446428571  1.93033854166667 1.74944196428571  C 2.10611979166667 1.39787946428571  2.34375 1.09375  2.64322916666667 0.837053571428571  C 2.94270833333333 0.580357142857143  3.29752604166667 0.376674107142857  3.70768229166667 0.226004464285714  C 4.11783854166667 0.075334821428571  4.54861111111111 0  5 0  C 5.45138888888889 0  5.88216145833333 0.075334821428571  6.29231770833333 0.226004464285714  C 6.70247395833333 0.376674107142857  7.05729166666667 0.580357142857143  7.35677083333333 0.837053571428571  C 7.65625 1.09375  7.89388020833333 1.39787946428571  8.06966145833333 1.74944196428571  C 8.24544270833333 2.10100446428571  8.33333333333333 2.47023809523809  8.33333333333333 2.85714285714286  Z M 6.767578125 1.34207589285714  C 6.279296875 0.923549107142857  5.69010416666667 0.714285714285714  5 0.714285714285714  C 4.30989583333333 0.714285714285714  3.720703125 0.923549107142857  3.232421875 1.34207589285714  C 2.744140625 1.76060267857143  2.5 2.265625  2.5 2.85714285714286  C 2.5 3.44866071428571  2.744140625 3.95368303571429  3.232421875 4.37220982142857  C 3.720703125 4.79073660714286  4.30989583333333 5  5 5  C 5.69010416666667 5  6.279296875 4.79073660714286  6.767578125 4.37220982142857  C 7.255859375 3.95368303571429  7.5 3.44866071428571  7.5 2.85714285714286  C 7.5 2.265625  7.255859375 1.76060267857143  6.767578125 1.34207589285714  Z M 2.22005208333333 9.28571428571429  L 7.77994791666667 9.28571428571429  C 8.16189236111111 9.28571428571429  8.48849826388889 9.15271577380952  8.759765625 8.88671875  C 9.03103298611111 8.62072172619048  9.16666666666667 8.29799107142857  9.16666666666667 7.91852678571429  C 9.16666666666667 7.02938988095238  8.99631076388889 6.328125  8.65559895833333 5.81473214285714  C 8.31488715277778 5.30133928571429  7.82552083333333 5.03162202380952  7.1875 5.00558035714286  C 6.55815972222222 5.47805059523809  5.82899305555556 5.71428571428571  5 5.71428571428571  C 4.17100694444444 5.71428571428571  3.44184027777778 5.47805059523809  2.8125 5.00558035714286  C 2.17447916666667 5.03162202380952  1.68511284722222 5.30133928571429  1.34440104166667 5.81473214285714  C 1.00368923611111 6.328125  0.833333333333333 7.02938988095238  0.833333333333333 7.91852678571429  C 0.833333333333333 8.29799107142857  0.968967013888889 8.62072172619048  1.240234375 8.88671875  C 1.51150173611111 9.15271577380952  1.83810763888889 9.28571428571429  2.22005208333333 9.28571428571429  Z " fill-rule="nonzero" fill="#333333" stroke="none" transform="matrix(1 0 0 1 2158 335 )" />
  </g>
</svg>