<?xml version="1.0" encoding="utf-8"?>
<svg version="1.1" xmlns:xlink="http://www.w3.org/1999/xlink" width="30px" height="30px" xmlns="http://www.w3.org/2000/svg">
  <g transform="matrix(1 0 0 1 -2105 -420 )">
    <path d="M 20.703125 1.13839285714286  L 28.671875 7.96875  C 28.8541666666667 8.125  29.0364583333333 8.32589285714286  29.21875 8.57142857142857  L 20 8.57142857142857  L 20 0.669642857142858  C 20.2864583333333 0.825892857142856  20.5208333333333 0.982142857142854  20.703125 1.13839285714286  Z M 18.046875 10.2455357142857  C 18.4114583333333 10.5580357142857  18.8541666666667 10.7142857142857  19.375 11  L 30 11  L 30 28.3928571428571  C 30 28.8392857142857  29.8177083333333 29.21875  29.453125 29.53125  C 29.0885416666667 29.84375  28.6458333333333 30  28.125 30  L 1.875 30  C 1.35416666666667 30  0.911458333333333 29.84375  0.546875 29.53125  C 0.182291666666667 29.21875  0 28.8392857142857  0 28.3928571428571  L 0 1.60714285714286  C 0 1.16071428571428  0.182291666666667 0.781249999999999  0.546875 0.46875  C 0.911458333333333 0.156250000000001  1.35416666666667 0  1.875 0  L 17.5 0  L 17.5 9.10714285714286  C 17.5 9.55357142857143  17.6822916666667 9.93303571428571  18.046875 10.2455357142857  Z M 22.32421875 23.4207589285714  C 22.44140625 23.3203125  22.5 23.1919642857143  22.5 23.0357142857143  L 22.5 21.9642857142857  C 22.5 21.8080357142857  22.44140625 21.6796875  22.32421875 21.5792410714286  C 22.20703125 21.4787946428571  22.0572916666667 21.4285714285714  21.875 21  L 8.125 21  C 7.94270833333333 21.4285714285714  7.79296875 21.4787946428571  7.67578125 21.5792410714286  C 7.55859375 21.6796875  7.5 21.8080357142857  7.5 21.9642857142857  L 7.5 23.0357142857143  C 7.5 23.1919642857143  7.55859375 23.3203125  7.67578125 23.4207589285714  C 7.79296875 23.5212053571429  7.94270833333333 23.5714285714286  8.125 23  L 21.875 23  C 22.0572916666667 23.5714285714286  22.20703125 23.5212053571429  22.32421875 23.4207589285714  Z M 22.32421875 19.1350446428571  C 22.44140625 19.0345982142857  22.5 18.90625  22.5 18.75  L 22.5 17.6785714285714  C 22.5 17.5223214285714  22.44140625 17.3939732142857  22.32421875 17.2935267857143  C 22.20703125 17.1930803571429  22.0572916666667 17.1428571428571  21.875 17  L 8.125 17  C 7.94270833333333 17.1428571428571  7.79296875 17.1930803571429  7.67578125 17.2935267857143  C 7.55859375 17.3939732142857  7.5 17.5223214285714  7.5 17.6785714285714  L 7.5 18.75  C 7.5 18.90625  7.55859375 19.0345982142857  7.67578125 19.1350446428571  C 7.79296875 19.2354910714286  7.94270833333333 19.2857142857143  8.125 19  L 21.875 19  C 22.0572916666667 19.2857142857143  22.20703125 19.2354910714286  22.32421875 19.1350446428571  Z M 22.32421875 14.8493303571429  C 22.44140625 14.7488839285714  22.5 14.6205357142857  22.5 14.4642857142857  L 22.5 13.3928571428571  C 22.5 13.2366071428571  22.44140625 13.1082589285714  22.32421875 13.0078125  C 22.20703125 12.9073660714286  22.0572916666667 12.8571428571429  21.875 13  L 8.125 13  C 7.94270833333333 12.8571428571429  7.79296875 12.9073660714286  7.67578125 13.0078125  C 7.55859375 13.1082589285714  7.5 13.2366071428571  7.5 13.3928571428571  L 7.5 14.4642857142857  C 7.5 14.6205357142857  7.55859375 14.7488839285714  7.67578125 14.8493303571429  C 7.79296875 14.9497767857143  7.94270833333333 15  8.125 15  L 21.875 15  C 22.0572916666667 15  22.20703125 14.9497767857143  22.32421875 14.8493303571429  Z " fill-rule="nonzero" fill="#555555" stroke="none" transform="matrix(1 0 0 1 2105 420 )" />
  </g>
</svg>