<?xml version="1.0" encoding="utf-8"?>
<svg version="1.1" xmlns:xlink="http://www.w3.org/1999/xlink" width="30px" height="29px" xmlns="http://www.w3.org/2000/svg">
  <g transform="matrix(1 0 0 1 -2106 -475 )">
    <path d="M 28.359375 8.83181818181818  C 29.453125 9.4469696969697  30 10.1939393939394  30 11.0727272727273  L 30 17.9272727272727  C 30 18.3666666666667  29.7265625 18.7401515151515  29.1796875 19.0477272727273  C 28.6328125 19.355303030303  27.96875 19.5090909090909  27.1875 19.5090909090909  C 26.40625 19.5090909090909  25.7421875 19.355303030303  25.1953125 19.0477272727273  C 24.6484375 18.7401515151515  24.375 18.3666666666667  24.375 17.9272727272727  L 24.375 12.1272727272727  L 22 12.1272727272727  L 22 27.1545454545455  C 22.5 27.6598484848485  22.177734375 28.09375  21.533203125 28.45625  C 20.888671875 28.81875  20.1171875 29  19.21875 29  C 18.3203125 29  17.548828125 28.81875  16.904296875 28.45625  C 16.259765625 28.09375  15.9375 27.6598484848485  15.9375 27.1545454545455  L 15.9375 19.5090909090909  L 14.0625 19.5090909090909  L 14.0625 27.1545454545455  C 14.0625 27.6598484848485  13.740234375 28.09375  13.095703125 28.45625  C 12.451171875 28.81875  11.6796875 29  10.78125 29  C 9.8828125 29  9.111328125 28.81875  8.466796875 28.45625  C 7.822265625 28.09375  7.5 27.6598484848485  8 27.1545454545455  L 8 12.1272727272727  L 5.625 12.1272727272727  L 5.625 17.9272727272727  C 5.625 18.3666666666667  5.3515625 18.7401515151515  4.8046875 19.0477272727273  C 4.2578125 19.355303030303  3.59375 19.5090909090909  2.8125 19.5090909090909  C 2.03125 19.5090909090909  1.3671875 19.355303030303  0.8203125 19.0477272727273  C 0.2734375 18.7401515151515  0 18.3666666666667  0 17.9272727272727  L 0 11.0727272727273  C 0 10.1939393939394  0.546875 9.4469696969697  1.640625 8.83181818181818  C 2.734375 8.21666666666666  4.0625 7.90909090909091  5.625 8  L 24.375 8  C 25.9375 7.90909090909091  27.265625 8.21666666666666  28.359375 8.83181818181818  Z M 19.6435546875 1.07926136363636  C 20.9228515625 1.79876893939394  21.5625 2.66931818181818  21.5625 3.69090909090909  C 21.5625 4.7125  20.9228515625 5.58304924242424  19.6435546875 6.30255681818182  C 18.3642578125 7.02206439393939  16.81640625 7.38181818181818  15 7.38181818181818  C 13.18359375 7.38181818181818  11.6357421875 7.02206439393939  10.3564453125 6.30255681818182  C 9.0771484375 5.58304924242424  8.4375 4.7125  8.4375 3.69090909090909  C 8.4375 2.66931818181818  9.0771484375 1.79876893939394  10.3564453125 1.07926136363636  C 11.6357421875 0.359753787878786  13.18359375 0  15 0  C 16.81640625 0  18.3642578125 0.359753787878786  19.6435546875 1.07926136363636  Z " fill-rule="nonzero" fill="#555555" stroke="none" transform="matrix(1 0 0 1 2106 475 )" />
  </g>
</svg>