<?xml version="1.0" encoding="utf-8"?>
<svg version="1.1" xmlns:xlink="http://www.w3.org/1999/xlink" width="30px" height="30px" xmlns="http://www.w3.org/2000/svg">
  <g transform="matrix(1 0 0 1 -2107 -532 )">
    <path d="M 5.06930693069307 27.4653465346535  L 7.18811881188119 27.4653465346535  L 8.99009900990099 25.6633663366337  L 4.33663366336634 21.009900990099  L 2.53465346534653 22.8118811881188  L 2.53465346534653 24.9306930693069  L 5.06930693069307 24.9306930693069  L 5.06930693069307 27.4653465346535  Z M 17.4059405940594 9.42574257425743  C 17.4983498349835 9.33333333333333  17.5445544554455 9.22112211221122  17.5445544554455 9.08910891089109  C 17.5445544554455 8.7986798679868  17.3993399339934 8.65346534653465  17.1089108910891 8.65346534653465  C 16.976897689769 8.65346534653465  16.8646864686469 8.6996699669967  16.7722772277228 8.79207920792079  L 6.03960396039604 19.5247524752475  C 5.94719471947195 19.6171617161716  5.9009900990099 19.7293729372937  5.9009900990099 19.8613861386139  C 5.9009900990099 20.1518151815181  6.04620462046205 20.2970297029703  6.33663366336634 20.2970297029703  C 6.46864686468647 20.2970297029703  6.58085808580858 20.2508250825083  6.67326732673267 20.1584158415842  L 17.4059405940594 9.42574257425743  Z M 0 21.7623762376238  L 16.4752475247525 5.28712871287129  L 24.7128712871287 13.5247524752475  L 8.23762376237624 30  L 0 30  L 0 21.7623762376238  Z M 29.2673267326733 5.38613861386139  C 29.7557755775578 5.9009900990099  30 6.5016501650165  30 7.18811881188119  C 30 7.88778877887789  29.7557755775578 8.48184818481848  29.2673267326733 8.97029702970297  L 25.980198019802 12.2574257425743  L 17.7425742574257 4.01980198019802  L 21.029702970297 0.752475247524751  C 21.5049504950495 0.250825082508248  22.0990099009901 0  22.8118811881188 0  C 23.5115511551155 0  24.1122112211221 0.250825082508248  24.6138613861386 0.752475247524751  L 29.2673267326733 5.38613861386139  Z " fill-rule="nonzero" fill="#555555" stroke="none" transform="matrix(1 0 0 1 2107 532 )" />
  </g>
</svg>