<?xml version="1.0" encoding="utf-8"?>
<svg version="1.1" xmlns:xlink="http://www.w3.org/1999/xlink" width="55px" height="17px" xmlns="http://www.w3.org/2000/svg">
  <defs>
    <mask fill="white" id="clip342">
      <path d="M 0 10.9285714285715  L 0 6.07142857142848  C 0 2.67142857142835  2.95121951219509 0  6.7073170731707 0  L 35 0  L 36.219512195122 0  L 48.2926829268293 0  C 52.0487804878049 0  55 2.67142857142835  55 6.07142857142848  L 55 10.9285714285715  C 55 14.3285714285716  52.0487804878049 17  48.2926829268293 17  L 35 17  L 6.7073170731707 17  C 2.95121951219509 17  0 14.3285714285716  0 10.9285714285715  Z " fill-rule="evenodd" />
    </mask>
  </defs>
  <g transform="matrix(1 0 0 1 -1000 -3905 )">
    <path d="M 0 10.9285714285715  L 0 6.07142857142848  C 0 2.67142857142835  2.95121951219509 0  6.7073170731707 0  L 35 0  L 36.219512195122 0  L 48.2926829268293 0  C 52.0487804878049 0  55 2.67142857142835  55 6.07142857142848  L 55 10.9285714285715  C 55 14.3285714285716  52.0487804878049 17  48.2926829268293 17  L 35 17  L 6.7073170731707 17  C 2.95121951219509 17  0 14.3285714285716  0 10.9285714285715  Z " fill-rule="nonzero" fill="#ffffff" stroke="none" transform="matrix(1 0 0 1 1000 3905 )" />
    <path d="M 0 10.9285714285715  L 0 6.07142857142848  C 0 2.67142857142835  2.95121951219509 0  6.7073170731707 0  L 35 0  L 36.219512195122 0  L 48.2926829268293 0  C 52.0487804878049 0  55 2.67142857142835  55 6.07142857142848  L 55 10.9285714285715  C 55 14.3285714285716  52.0487804878049 17  48.2926829268293 17  L 35 17  L 6.7073170731707 17  C 2.95121951219509 17  0 14.3285714285716  0 10.9285714285715  Z " stroke-width="2" stroke="#02a7f0" fill="none" transform="matrix(1 0 0 1 1000 3905 )" mask="url(#clip342)" />
  </g>
</svg>