<?xml version="1.0" encoding="utf-8"?>
<svg version="1.1" xmlns:xlink="http://www.w3.org/1999/xlink" width="32px" height="35px" xmlns="http://www.w3.org/2000/svg">
  <g transform="matrix(1 0 0 1 -227 -382 )">
    <path d="M 14.4038461538462 3.0028129395218  C 14.6474358974359 3.314580403188  14.7692307692308 3.68377871542428  15 4.11040787623066  L 15 30.8895921237693  C 14.7692307692308 31.3162212845757  14.6474358974359 31.685419596812  14.4038461538462 31.9971870604782  C 14.1602564102564 32.3089545241444  13.8717948717949 32.4648382559775  13.5384615384615 32.4648382559775  C 13.2051282051282 32.4648382559775  12.9166666666667 32.3089545241444  12.6730769230769 31.9971870604782  L 6.26923076923077 23.8009845288326  L 1.23076923076923 23.8009845288326  C 0.897435897435898 23.8009845288326  0.608974358974359 23.6451007969995  0.365384615384615 23.3333333333333  C 0.121794871794872 23.0215658696671  0 22.6523675574308  0 22.2257383966245  L 0 12.7742616033755  C 0 12.3476324425691  0.121794871794872 11.9784341303329  0.365384615384615 11.6666666666667  C 0.608974358974359 11.3548992030005  0.897435897435898 11.1990154711674  1.23076923076923 11.1990154711674  L 6.26923076923077 11.1990154711674  L 12.6730769230769 3.0028129395218  C 12.9166666666667 2.6910454758556  13.2051282051282 2.5351617440225  13.5384615384615 2.5351617440225  C 13.8717948717949 2.5351617440225  14.1602564102564 2.6910454758556  14.4038461538462 3.0028129395218  Z M 21.3365384615385 14.0049226441631  C 21.8814102564103 15.0879043600563  22.1538461538462 16.2529301453352  22.1538461538462 17.5  C 22.1538461538462 18.7470698546648  21.8814102564103 19.9079934364744  21.3365384615385 20.982770745429  C 20.7916666666667 22.0575480543835  20.0705128205128 22.8246601031411  19.1730769230769 23.2841068917018  C 19.0448717948718 23.3661509610877  18.8846153846154 23.4071729957806  18.6923076923077 23.4071729957806  C 18.3589743589744 23.4071729957806  18.0705128205128 23.2553914674168  17.8269230769231 22.9518284106892  C 17.5833333333333 22.6482653539616  17.4615384615385 22.274964838256  17.4615384615385 21.8319268635724  C 17.4615384615385 21.4873417721519  17.5384615384615 21.1960853258322  17.6923076923077 20.9581575246132  C 17.8461538461538 20.7202297233943  18.0320512820513 20.5151195499297  18.25 20.3428270042194  C 18.4679487179487 20.1705344585091  18.6858974358974 19.9818330989217  18.9038461538462 19.7767229254571  C 19.1217948717949 19.5716127519925  19.3076923076923 19.2762541022035  19.4615384615385 18.89064697609  C 19.6153846153846 18.5050398499766  19.6923076923077 18.0414908579466  19.6923076923077 17.5  C 19.6923076923077 16.9585091420534  19.6153846153846 16.4949601500234  19.4615384615385 16.10935302391  C 19.3076923076923 15.7237458977965  19.1217948717949 15.4283872480075  18.9038461538462 15.2232770745429  C 18.6858974358974 15.0181669010783  18.4679487179487 14.8294655414909  18.25 14.6571729957806  C 18.0320512820513 14.4848804500703  17.8461538461538 14.2797702766057  17.6923076923077 14.0418424753868  C 17.5384615384615 13.8039146741678  17.4615384615385 13.5126582278481  17.4615384615385 13.1680731364276  C 17.4615384615385 12.725035161744  17.5833333333333 12.3517346460384  17.8269230769231 12.0481715893108  C 18.0705128205128 11.7446085325832  18.3589743589744 11.5928270042194  18.6923076923077 11.5928270042194  C 18.8846153846154 11.5928270042194  19.0448717948718 11.6338490389123  19.1730769230769 11.7158931082982  C 20.0705128205128 12.1589310829817  20.7916666666667 12.92194092827  21.3365384615385 14.0049226441631  Z M 25.4423076923077 10.5467651195499  C 26.5320512820513 12.6717065166432  27.0769230769231 14.9894514767932  27.0769230769231 17.5  C 27.0769230769231 20.0105485232068  26.5320512820513 22.3282934833568  25.4423076923077 24.4532348804501  C 24.3525641025641 26.5781762775434  22.9102564102564 28.1247069854665  21.1153846153846 29.0928270042194  C 20.948717948718 29.1748710736052  20.7884615384615 29.2158931082982  20.6346153846154 29.2158931082982  C 20.2884615384615 29.2158931082982  19.9935897435897 29.0600093764651  19.75 28.7482419127989  C 19.5064102564103 28.4364744491327  19.3846153846154 28.0672761368964  19.3846153846154 27.64064697609  C 19.3846153846154 27.0007032348805  19.6346153846154 26.516643225504  20.1346153846154 26.1884669479606  C 20.8525641025641 25.7126113455227  21.3397435897436 25.351617440225  21.5961538461538 25.1054852320675  C 22.5448717948718 24.2194092827004  23.2852564102564 23.1077121425223  23.8173076923077 21.7703938115331  C 24.349358974359 20.4330754805438  24.6153846153846 19.0096108766995  24.6153846153846 17.5  C 24.6153846153846 15.9903891233005  24.349358974359 14.5669245194562  23.8173076923077 13.2296061884669  C 23.2852564102564 11.8922878574777  22.5448717948718 10.7805907172996  21.5961538461538 9.89451476793249  C 21.3397435897436 9.64838255977497  20.8525641025641 9.28738865447726  20.1346153846154 8.81153305203938  C 19.6346153846154 8.48335677449601  19.3846153846154 7.99929676511955  19.3846153846154 7.35935302390998  C 19.3846153846154 6.93272386310361  19.5064102564103 6.56352555086732  19.75 6.25175808720113  C 19.9935897435897 5.93999062353493  20.2820512820513 5.78410689170183  20.6153846153846 5.78410689170183  C 20.7820512820513 5.78410689170183  20.948717948718 5.82512892639474  21.1153846153846 5.90717299578059  C 22.9102564102564 6.87529301453352  24.3525641025641 8.42182372245663  25.4423076923077 10.5467651195499  Z M 29.5576923076923 7.10091420534458  C 31.1858974358974 10.2596108766995  32 13.7259728082513  32 17.5  C 32 21.2740271917487  31.1858974358974 24.7403891233005  29.5576923076923 27.8990857946554  C 27.9294871794872 31.0577824660103  25.7628205128205 33.3837318330989  23.0576923076923 34.8769338959212  C 22.8910256410256 34.9589779653071  22.724358974359 35  22.5576923076923 35  C 22.224358974359 35  21.9358974358974 34.8441162681669  21.6923076923077 34.5323488045007  C 21.448717948718 34.2205813408345  21.3269230769231 33.8513830285982  21.3269230769231 33.4247538677918  C 21.3269230769231 32.8340365682138  21.5769230769231 32.3499765588373  22.0769230769231 31.9725738396624  C 22.1666666666667 31.9069385841538  22.3108974358974 31.8207923112986  22.5096153846154 31.714135021097  C 22.7083333333333 31.6074777308955  22.8525641025641 31.5213314580403  22.9423076923077 31.4556962025316  C 23.5320512820513 31.0454758556024  24.0576923076923 30.6270511017346  24.5192307692308 30.2004219409283  C 26.0961538461538 28.707219878106  27.3269230769231 26.8448195030473  28.2115384615385 24.6132208157525  C 29.0961538461538 22.3816221284576  29.5384615384615 20.0105485232068  29.5384615384615 17.5  C 29.5384615384615 14.9894514767932  29.0961538461538 12.6183778715424  28.2115384615385 10.3867791842475  C 27.3269230769231 8.15518049695265  26.0961538461538 6.29278012189404  24.5192307692308 4.79957805907173  C 24.0576923076923 4.37294889826535  23.5320512820513 3.95452414439756  22.9423076923077 3.54430379746835  C 22.8525641025641 3.47866854195968  22.7083333333333 3.39252226910454  22.5096153846154 3.28586497890295  C 22.3108974358974 3.17920768870136  22.1666666666667 3.09306141584622  22.0769230769231 3.02742616033755  C 21.5769230769231 2.65002344116268  21.3269230769231 2.16596343178621  21.3269230769231 1.57524613220816  C 21.3269230769231 1.14861697140178  21.448717948718 0.779418659165491  21.6923076923077 0.467651195499296  C 21.9358974358974 0.155883731833097  22.224358974359 0  22.5576923076923 0  C 22.724358974359 0  22.8910256410256 0.0410220346929185  23.0576923076923 0.123066104078763  C 25.7628205128205 1.61626816690107  27.9294871794872 3.94221753398968  29.5576923076923 7.10091420534458  Z " fill-rule="nonzero" fill="#02a7f0" stroke="none" transform="matrix(1 0 0 1 227 382 )" />
  </g>
</svg>