<?xml version="1.0" encoding="utf-8"?>
<svg version="1.1" xmlns:xlink="http://www.w3.org/1999/xlink" width="65px" height="17px" xmlns="http://www.w3.org/2000/svg">
  <defs>
    <mask fill="white" id="clip343">
      <path d="M 0 10.9285714285715  L 0 6.07142857142848  C 0 2.67142857142835  3.48780487804874 0  7.92682926829264 0  L 41.3636363636364 0  L 42.8048780487805 0  L 57.0731707317074 0  C 61.5121951219513 0  65 2.67142857142835  65 6.07142857142848  L 65 10.9285714285715  C 65 14.3285714285716  61.5121951219513 17  57.0731707317074 17  L 41.3636363636364 17  L 7.92682926829264 17  C 3.48780487804874 17  0 14.3285714285716  0 10.9285714285715  Z " fill-rule="evenodd" />
    </mask>
  </defs>
  <g transform="matrix(1 0 0 1 -1059 -3980 )">
    <path d="M 0 10.9285714285715  L 0 6.07142857142848  C 0 2.67142857142835  3.48780487804874 0  7.92682926829264 0  L 41.3636363636364 0  L 42.8048780487805 0  L 57.0731707317074 0  C 61.5121951219513 0  65 2.67142857142835  65 6.07142857142848  L 65 10.9285714285715  C 65 14.3285714285716  61.5121951219513 17  57.0731707317074 17  L 41.3636363636364 17  L 7.92682926829264 17  C 3.48780487804874 17  0 14.3285714285716  0 10.9285714285715  Z " fill-rule="nonzero" fill="#ffffff" stroke="none" transform="matrix(1 0 0 1 1059 3980 )" />
    <path d="M 0 10.9285714285715  L 0 6.07142857142848  C 0 2.67142857142835  3.48780487804874 0  7.92682926829264 0  L 41.3636363636364 0  L 42.8048780487805 0  L 57.0731707317074 0  C 61.5121951219513 0  65 2.67142857142835  65 6.07142857142848  L 65 10.9285714285715  C 65 14.3285714285716  61.5121951219513 17  57.0731707317074 17  L 41.3636363636364 17  L 7.92682926829264 17  C 3.48780487804874 17  0 14.3285714285716  0 10.9285714285715  Z " stroke-width="2" stroke="#02a7f0" fill="none" transform="matrix(1 0 0 1 1059 3980 )" mask="url(#clip343)" />
  </g>
</svg>