<?xml version="1.0" encoding="utf-8"?>
<svg version="1.1" xmlns:xlink="http://www.w3.org/1999/xlink" width="19px" height="19px" xmlns="http://www.w3.org/2000/svg">
  <g transform="matrix(1 0 0 1 -869 -1123 )">
    <path d="M 18.1118980169972 0  C 18.4886685552408 0  18.7533050047214 0.175426136363637  18.9058073654391 0.526278409090909  C 19.0583097261568 0.895123106060604  18.9955146364495 1.20999053030303  18.7174220963173 1.47088068181818  L 12 8.12357954545455  L 12 18.1363636363636  C 12.0835694050991 18.5142045454545  11.9086402266289 18.7795928030303  11.5587818696884 18.9325284090909  C 11.4421624173749 18.977509469697  11.3300283286119 19  11.2223796033994 19  C 10.9801699716714 19  10.778328611898 18.9145359848485  10.6168555240793 18.7436079545455  L 7.17209631728045 15.2890625  C 7.00165250236072 15.118134469697  6.91643059490085 14.9157196969697  6.91643059490085 14.6818181818182  L 6.91643059490085 8.12357954545455  L 0.28257790368272 1.47088068181818  C 0.00448536355051935 1.20999053030303  -0.0583097261567517 0.895123106060604  0.0941926345609065 0.526278409090909  C 0.246694995278565 0.175426136363637  0.511331444759207 0  0.888101983002833 0  L 18.1118980169972 0  Z " fill-rule="nonzero" fill="#000000" stroke="none" transform="matrix(1 0 0 1 869 1123 )" />
  </g>
</svg>