<?xml version="1.0" encoding="utf-8"?>
<svg version="1.1" xmlns:xlink="http://www.w3.org/1999/xlink" width="37px" height="40px" xmlns="http://www.w3.org/2000/svg">
  <g transform="matrix(1 0 0 1 -1309 -867 )">
    <path d="M 25.7710336538462 30.3459821428571  C 26.3936298076923 29.6242559523809  26.7049278846154 28.7202380952381  26.7049278846154 27.6339285714286  C 26.7049278846154 26.7857142857143  26.6641626602564 25.9895833333333  26.5826322115385 25.2455357142857  C 26.5011017628205 24.5014880952381  26.345452724359 23.7537202380952  26.1156850961538 23.0022321428571  C 25.8859174679487 22.250744047619  25.5931490384615 21.6108630952381  25.2373798076923 21.0825892857143  C 24.8816105769231 20.5543154761905  24.4072516025641 20.1227678571429  23.8143028846154 19.7879464285714  C 23.2213541666667 19.453125  22.546875 19.2857142857143  21.7908653846154 19.2857142857143  C 21.7019230769231 19.3452380952381  21.4536258012821 19.4977678571429  21.0459735576923 19.7433035714286  C 20.6383213141026 19.9888392857143  20.3233173076923 20.1711309523809  20.1009615384615 20.2901785714286  C 19.8786057692308 20.4092261904762  19.5784254807692 20.5580357142857  19.2004206730769 20.7366071428571  C 18.8224158653846 20.9151785714286  18.459234775641 21.0416666666667  18.1108774038462 21.1160714285714  C 17.7625200320513 21.1904761904762  17.4178685897436 21.2276785714286  17.0769230769231 21.2276785714286  C 16.7359775641026 21.2276785714286  16.3913261217949 21.1904761904762  16.04296875 21.1160714285714  C 15.6946113782051 21.0416666666667  15.3314302884615 20.9151785714286  14.9534254807692 20.7366071428571  C 14.5754206730769 20.5580357142857  14.2752403846154 20.4092261904762  14.0528846153846 20.2901785714286  C 13.8305288461538 20.1711309523809  13.5155248397436 19.9888392857143  13.1078725961538 19.7433035714286  C 12.7002203525641 19.4977678571429  12.4519230769231 19.3452380952381  12.3629807692308 19.2857142857143  C 11.6069711538462 19.2857142857143  10.9324919871795 19.453125  10.3395432692308 19.7879464285714  C 9.74659455128205 20.1227678571429  9.27223557692308 20.5543154761905  8.91646634615385 21.0825892857143  C 8.56069711538462 21.6108630952381  8.26792868589744 22.250744047619  8.03816105769231 23.0022321428571  C 7.80839342948718 23.7537202380952  7.65274439102564 24.5014880952381  7.57121394230769 25.2455357142857  C 7.48968349358974 25.9895833333333  7.44891826923077 26.7857142857143  7.44891826923077 27.6339285714286  C 7.44891826923077 28.7202380952381  7.76021634615385 29.6242559523809  8.3828125 30.3459821428571  C 9.00540865384615 31.0677083333333  9.76883012820513 31.4285714285714  10.6730769230769 31  L 23.4807692307692 31  C 24.385016025641 31.4285714285714  25.1484375 31.0677083333333  25.7710336538462 30.3459821428571  Z M 21.1571514423077 18.4598214285714  C 22.2911658653846 17.328869047619  22.8581730769231 15.9672619047619  22.8581730769231 14.375  C 22.8581730769231 12.7678571428571  22.2911658653846 11.3988095238095  21.1571514423077 10.2678571428571  C 20.0231370192308 9.13690476190476  18.6630608974359 8.57142857142857  17.0769230769231 8.57142857142857  C 15.4907852564103 8.57142857142857  14.1307091346154 9.13690476190476  12.9966947115385 10.2678571428571  C 11.8626802884615 11.3988095238095  11.2956730769231 12.7678571428571  11.2956730769231 14.375  C 11.2956730769231 15.9672619047619  11.8626802884615 17.328869047619  12.9966947115385 18.4598214285714  C 14.1307091346154 19.5907738095238  15.4907852564103 20.15625  17.0769230769231 20.15625  C 18.6630608974359 20.15625  20.0231370192308 19.5907738095238  21.1571514423077 18.4598214285714  Z M 36.7998798076923 25.9151785714286  C 36.9332932692308 26.0491071428571  37 26.2202380952381  37 26.4285714285714  L 37 30.7142857142857  C 37 30.922619047619  36.9332932692308 31.09375  36.7998798076923 31.2276785714286  C 36.6664663461538 31.3616071428571  36.4959935897436 31.4285714285714  36.2884615384615 31.4285714285714  L 34.1538461538462 31.4285714285714  L 34.1538461538462 36.4285714285714  C 34.1538461538462 37.4107142857143  33.8054887820513 38.2514880952381  33.1087740384615 38.9508928571429  C 32.4120592948718 39.6502976190476  31.5745192307692 40  30.5961538461538 40  L 3.55769230769231 40  C 2.57932692307692 40  1.74178685897436 39.6502976190476  1.04507211538462 38.9508928571429  C 0.348357371794872 38.2514880952381  0 37.4107142857143  0 36.4285714285714  L 0 3.57142857142857  C 0 2.58928571428572  0.348357371794872 1.7485119047619  1.04507211538462 1.04910714285714  C 1.74178685897436 0.349702380952381  2.57932692307692 0  3.55769230769231 0  L 30.5961538461538 0  C 31.5745192307692 0  32.4120592948718 0.349702380952381  33.1087740384615 1.04910714285714  C 33.8054887820513 1.7485119047619  34.1538461538462 2.58928571428572  34.1538461538462 3.57142857142857  L 34.1538461538462 8.57142857142857  L 36.2884615384615 8.57142857142857  C 36.4959935897436 8.57142857142857  36.6664663461538 8.63839285714286  36.7998798076923 8.77232142857143  C 36.9332932692308 8.90625  37 9.07738095238095  37 9.28571428571428  L 37 13.5714285714286  C 37 13.7797619047619  36.9332932692308 13.9508928571429  36.7998798076923 14.0848214285714  C 36.6664663461538 14.21875  36.4959935897436 14.2857142857143  36.2884615384615 14.2857142857143  L 34.1538461538462 14.2857142857143  L 34.1538461538462 17.1428571428571  L 36.2884615384615 17.1428571428571  C 36.4959935897436 17.1428571428571  36.6664663461538 17.2098214285714  36.7998798076923 17.34375  C 36.9332932692308 17.4776785714286  37 17.6488095238095  37 17.8571428571429  L 37 22.1428571428571  C 37 22.3511904761905  36.9332932692308 22.5223214285714  36.7998798076923 22.65625  C 36.6664663461538 22.7901785714286  36.4959935897436 22.8571428571429  36.2884615384615 22.8571428571429  L 34.1538461538462 22.8571428571429  L 34.1538461538462 25.7142857142857  L 36.2884615384615 25.7142857142857  C 36.4959935897436 25.7142857142857  36.6664663461538 25.78125  36.7998798076923 25.9151785714286  Z " fill-rule="nonzero" fill="#d9001b" stroke="none" transform="matrix(1 0 0 1 1309 867 )" />
  </g>
</svg>