<?xml version="1.0" encoding="utf-8"?>
<svg version="1.1" xmlns:xlink="http://www.w3.org/1999/xlink" width="30px" height="30px" xmlns="http://www.w3.org/2000/svg">
  <g transform="matrix(1 0 0 1 -1558 -5033 )">
    <path d="M 1558 5033  L 1588 5033  L 1588 5063  L 1558 5063  L 1558 5033  " fill-rule="nonzero" fill="#cccccc" stroke="none" />
    <path d="M 1560 5035  L 1586 5035  L 1586 5061  L 1560 5061  L 1560 5035  " fill-rule="nonzero" fill="#ffffff" stroke="none" />
    <path d="M 1575.85 5042  C 1574.59 5042  1573.6 5041.01  1573.6 5039.75  C 1573.6 5038.49  1574.59 5037.5  1575.85 5037.5  C 1577.11 5037.5  1578.1 5038.49  1578.1 5039.75  C 1578.1 5041.01  1577.11 5042  1575.85 5042  " fill-rule="nonzero" fill="#cccccc" stroke="none" />
    <path d="M 1561 5060  L 1561 5046.8  L 1567 5040.8  L 1575.4 5045.6  L 1580.2 5044.4  L 1585 5045.6  L 1585 5060  L 1561 5060  " fill-rule="nonzero" fill="#169bd5" stroke="none" />
  </g>
</svg>