<?xml version="1.0" encoding="utf-8"?>
<svg version="1.1" xmlns:xlink="http://www.w3.org/1999/xlink" width="43px" height="41px" xmlns="http://www.w3.org/2000/svg">
  <g transform="matrix(1 0 0 1 -519 -5380 )">
    <path d="M 7.59829545454545 27.4214536928488  C 8.86875 27.6137162954279  13.0140151515152 27.8380226651036  20.0340909090909 28.0943728018757  L 19.6676136363636 36.9384525205158  L 19.61875 37.4671746776084  L 9.35738636363636 36.7702227432591  C 8.77102272727273 36.7221570926143  8.22537878787879 36.4698124267292  7.72045454545454 36.0131887456038  C 7.2155303030303 35.5565650644783  6.83276515151515 35.0318483782728  6.57215909090909 34.4390386869871  C 6.39299242424242 34.0064478311841  6.2749053030303 33.5658460336069  6.21789772727273 33.1172332942556  C 6.16089015151515 32.6686205549043  6.19346590909091 32.1479093395858  6.315625 31.5550996483001  C 6.43778409090909 30.9622899570145  6.53551136363636 30.5216881594373  6.60880681818182 30.2332942555686  C 6.68210227272727 29.9449003516999  6.85719696969697 29.4322000781555  7.13409090909091 28.6951934349355  C 7.41098484848485 27.9581867917155  7.5657196969697 27.5336068776866  7.59829545454545 27.4214536928488  Z M 0 13.6025791324736  L 10.5789772727273 14.0111371629543  L 14.9767045454545 23.1195779601407  L 11.3852272727273 20.9085580304807  C 10.3590909090909 22.0621336459554  9.45104166666667 23.2197147323173  8.66107954545454 24.3813012895662  C 7.87111742424243 25.5428878468152  7.28068181818182 26.5442555685815  6.88977272727273 27.3854044548652  C 6.49886363636364 28.2265533411489  6.17717803030303 28.9835873388042  5.92471590909091 29.6565064478312  C 5.67225378787879 30.3294255568581  5.52159090909091 30.8341148886284  5.47272727272727 31.1705744431419  L 5.375 31.6752637749121  L 0.732954545454545 23.0955451348183  C 0.456060606060606 22.6789761625635  0.309469696969697 22.2303634232122  0.293181818181818 21.7497069167644  C 0.276893939393939 21.2690504103165  0.325757575757576 20.8925361469324  0.439772727272727 20.620164126612  L 0.635227272727273 20.1875732708089  C 1.20530303030303 19.1781946072685  2.13371212121212 17.6721375537319  3.42045454545455 15.6694021101993  L 0 13.6025791324736  Z M 39.2863636363636 26.9648300117233  L 40.6545454545455 26.4361078546307  L 36.0613636363636 35.0638921453693  C 35.8659090909091 35.5285267682689  35.5686553030303 35.9010355607659  35.1696022727273 36.1814185228605  C 34.7705492424242 36.4618014849551  34.4162878787879 36.6260257913247  34.1068181818182 36.6740914419695  L 33.6670454545455 36.7702227432591  C 32.5106060606061 36.8823759280969  30.7270833333333 36.9785072293865  28.3164772727273 37.0586166471278  L 28.5119318181818 41  L 22.8926136363636 32.1799531066823  L 28.0477272727273 23.4800703399766  L 28.21875 27.6377491207503  C 30.9876893939394 27.8940992575225  33.2924242424242 27.9341539663931  35.1329545454545 27.7579132473623  C 36.9734848484849 27.5816725283314  38.3579545454545 27.3173114497851  39.2863636363636 26.9648300117233  Z M 20.69375 3.38862837045721  C 21.0846590909091 3.82121922626026  21.3452651515152 4.10160218835482  21.4755681818182 4.22977725674091  C 20.7100378787879 5.23915592028136  18.5518939393939 8.72391559202814  15.0011363636364 14.6840562719812  L 7.25625 10.189917936694  L 6.79204545454545 9.90152403282532  L 12.2892045454545 1.34583821805393  C 12.6149621212121 0.849159828057834  13.1035984848485 0.488667448221961  13.7551136363636 0.264361078546305  C 14.4066287878788 0.04005470887065  15.0581439393939 -0.0400547088706591  15.7096590909091 0.0240328253223918  C 16.1005681818182 0.0560765924189127  16.4955492424242 0.15220789370848  16.8946022727273 0.312426729191089  C 17.2936553030303 0.472645564673698  17.6357007575758 0.640875341930436  17.9207386363636 0.817116060961313  C 18.2057765151515 0.993356779992184  18.54375 1.25771785853849  18.9346590909091 1.61019929660023  C 19.3255681818182 1.96268073466197  19.61875 2.23905822586948  19.8142045454545 2.43933177022274  C 20.0096590909091 2.63960531457601  20.3028409090909 2.95603751465416  20.69375 3.38862837045721  Z M 37.0142045454545 11.8722157092614  L 37.4784090909091 11.6078546307151  L 42.6579545454545 20.3317702227433  C 42.9511363636364 20.9245799140289  43.0529356060606 21.5334114888628  42.9633522727273 22.158264947245  C 42.8737689393939 22.7831184056272  42.6498106060606 23.3759280969129  42.2914772727273 23.936694021102  C 42.0797348484848 24.2571316920672  41.8109848484849 24.55353653771  41.4852272727273 24.8259085580305  C 41.1594696969697 25.0982805783509  40.85 25.3225869480266  40.5568181818182 25.4988276670574  C 40.2636363636364 25.6750683860883  39.8686553030303 25.8513091051192  39.371875 26.0275498241501  C 38.8750946969697 26.2037905431809  38.4923295454545 26.331965611567  38.2235795454545 26.4120750293083  C 37.9548295454545 26.4921844470496  37.5354166666667 26.6043376318875  36.9653409090909 26.7485345838218  C 36.3952651515152 26.8927315357562  36.0206439393939 26.9888628370457  35.8414772727273 27.0369284876905  C 35.2876893939394 25.8833528722157  33.1295454545455 22.3905822586948  29.3670454545455 16.5586166471278  L 37.0142045454545 11.8722157092614  Z M 31.2482954545455 1.61019929660023  C 31.8835227272727 2.58753419304416  32.7956439393939 4.10961313012896  33.9846590909091 6.17643610785463  L 37.4539772727273 4.18171160609613  L 32.0789772727273 13.1459554513482  L 21.8420454545455 12.6652989449003  L 25.53125 10.5984759671747  C 24.9774621212121 9.17252833137944  24.3666666666667 7.84271199687378  23.6988636363636 6.60902696365768  C 23.0310606060606 5.37534193044157  22.4161931818182 4.38599062133646  21.8542613636364 3.64097303634232  C 21.2923295454546 2.89595545134818  20.7670454545455 2.25508010941774  20.2784090909091 1.718347010551  C 19.7897727272727 1.18161391168425  19.4070075757576 0.809105119187179  19.1301136363636 0.600820633059791  L 18.7147727272727 0.288393903868697  L 28.6096590909091 0.312426729191089  C 29.1145833333333 0.264361078546305  29.5869318181818 0.348475967174677  30.0267045454545 0.564771395076203  C 30.4664772727273 0.781066822977725  30.7840909090909 1.00937866354045  30.9795454545455 1.24970691676436  L 31.2482954545455 1.61019929660023  Z " fill-rule="nonzero" fill="#f59a23" stroke="none" transform="matrix(1 0 0 1 519 5380 )" />
  </g>
</svg>